<svg enable-background="new 0 0 128 128" height="100" fill="#625fab" viewBox="0 0 128 128" width="100" xmlns="http://www.w3.org/2000/svg"><path d="m15.1853638 76.3674316c-5.3035278 0-9.5300293 4.4341431-9.2758179 9.7316284l1.0075684 20.9954834c.0511475 1.0661011.9303589 1.9041748 1.9976807 1.9041748h12.5411377c1.0673218 0 1.9465942-.8380737 1.9977417-1.9041748l1.0075073-20.9954834c.2542114-5.2974853-3.9722291-9.7316284-9.2758179-9.7316284z"/><path d="m89.8530884 76.3674316h-.000061c-5.3035278 0-9.5299683 4.4341431-9.2757568 9.7316284l1.0075073 20.9954834c.0511475 1.0661011.9304199 1.9041748 1.9976807 1.9041748h12.5411987c1.0672607 0 1.9465332-.8380737 1.9976807-1.9041748l1.0075684-20.9954834c.2542113-5.2974853-3.9722902-9.7316284-9.275818-9.7316284z"/><path d="m45.5133667 91.9436035.642395-5.151062c.6901245-5.5336914-3.6184082-10.4232788-9.1949463-10.4350586h-.000061c-5.5765381-.0117798-9.9056396 4.8595581-9.2389526 10.3961182l.6270752 5.2069702c.1859131 1.5440063.0106201 3.1101074-.512146 4.5748291l-.1188354.3330688c-.8615723 2.4141235-1.3045654 4.9575806-1.3099365 7.520813l-.0054321 2.6052246c-.0023193 1.1062012.8937988 2.0042114 2 2.0042114h16.9871216c1.1029053 0 1.9976807-.8928833 2-1.9957886l.0056152-2.6459351c.0055542-2.6397705-.453064-5.2599487-1.3549805-7.7409058-.5430299-1.4938353-.7236329-3.0952147-.5269166-4.6724852z"/><path d="m27.0582275 69.0808105c-.2102661.4880371-.3130493 1.0435791-.263855 1.6570435.0997314 1.2434692.8848877 2.3818359 2.0231323 2.8922729 1.2068481.5412598 2.4720459.3481445 3.430542-.3025513.3061523.2196045.6245117.427124.9683838.6062622 2.3752441 1.2373657 5.0827637 1.1583862 7.3041382.0371094.0198364.1323853.0421753.2660522.0875854.4098511.2980347.9436646 1.0473022 1.7373047 2.020874 1.9147339 1.3748169.2505493 2.7150269-.6260376 3.0259399-2.0020142.0823364-.3643188.0837402-.7277222.0169067-1.0722656-.0526733-.2712402.0186157-.5581665.2017822-.7650146.3747559-.4233398.6537476-.9406128.7872314-1.5313721.3545532-1.5690308-.4104004-3.1201782-1.7595215-3.848999.0487061-1.6877441-.432373-3.3526611-1.3799438-4.7446289.2385864-.3511963.4061279-.760498.4512939-1.2236938.1069946-1.0977173-.5268555-2.192627-1.5370483-2.635376-.3528442-.1546631-.7128296-.2271118-1.0629883-.2286377-.7061157-.0030518-1.3608398-.3531494-1.6524658-.9962158-.3677368-.8109741-1.0952148-1.4458008-2.0317993-1.6574707-1.0795288-.2439575-2.1508179.1385498-2.8413086.90625-.4793091.5328369-1.2038574.7005005-1.8910522.4969482-.2510986-.0744019-.5198364-.1165161-.8041992-.119873-1.1779175-.013855-2.2996216.7096558-2.7521973 1.7973022-.1674805.4026489-.2415771.8129883-.2348022 1.2109985.0133057.7842407-.4370117 1.4645996-1.1682739 1.74823-1.0454712.4055176-1.8760376 1.3019409-2.1422119 2.4797974-.2721558 1.2044678.1133423 2.4008789.9175415 3.2213745.4584352.4676513.5453492 1.1484985.286316 1.7499389z"/><path d="m85.649292 72.3287354c-.6711426.2518921-1.3728638.3795776-2.0856323.3795776-.1365967 0-.2686157-.0203857-.4033203-.0294189.5180054.4837036 1.1029053.9115601 1.762085 1.2549438 3.918457 2.0412598 8.7497559.5195312 10.7910767-3.3989258 2.0412598-3.918457.5195312-8.7498169-3.3989258-10.7910767-1.6953735-.8831787-3.5611572-1.0968018-5.2984009-.7404785l2.1141357 5.7022095c1.133667 3.0576172-.4279786 6.477356-3.4810181 7.623169z"/><path d="m120.1104126 96.6160889c-.5430298-1.4938354-.7236328-3.0952148-.5269775-4.6724854l.642395-5.151062c.6901245-5.5336914-3.6184082-10.4232788-9.1949463-10.4350586s-9.9057007 4.8595581-9.2389526 10.3961182l.6270142 5.2069702c.1859741 1.5440063.0106812 3.1101074-.512085 4.5748291l-.1187134.3326416c-.8616333 2.4143677-1.3046875 4.9581909-1.3100586 7.5216675l-.0054932 2.6047974c-.0022583 1.1062012.8937988 2.0042114 2 2.0042114h16.9871826c1.1029053 0 1.9976807-.8928833 2-1.9957886l.0055542-2.6459351c.0056153-2.6397705-.4530029-5.2599487-1.3549194-7.7409057z"/><path d="m104.2506104 63.1427612c-2.0413208 3.918457-.5195312 8.7498169 3.3989258 10.7910767s8.7497559.5195312 10.7910767-3.3989258c1.2285156-2.3582764 1.1586304-5.0436401.0603027-7.2559814.8820801-.3360596 1.6283569-1.0181274 1.9979858-1.9669189.6939087-1.78125-.1875-3.7877197-1.968689-4.4816895-.9874878-.3847046-2.0369263-.2714233-2.9008789.1971436-.279541-.4279785-.68573-.7786255-1.1983643-.9783325-1.3068848-.5090942-2.7789917.1375732-3.2880859 1.444458-.1749268.4489136-.2046509.9155884-.1268311 1.3577881-2.7655029.1168822-5.3948364 1.6602782-6.7654418 4.2913817z"/><path d="m74.2639771 54.0301514 5.6396484 14.1935425c.284668.7164917.7615967 1.2965088 1.3427124 1.7198486.6691895.4874268 1.4780884.7647705 2.3173218.7647705.4599609 0 .9273682-.0811157 1.3828735-.2520752 2.0303345-.7619629 3.0623779-3.0220947 2.3085327-5.0554199l-2.1313477-5.7485962-6.7490845-18.203186c-1.4538574-3.9212036-5.1942139-6.5236206-9.3762817-6.5236206h-7.4047241c-2.8845825 0-5.5515747-1.5339355-7.0020752-4.0272827l-10.5700683-18.1694947c-.7687378-1.3214722-2.1453857-2.036377-3.5453491-2.036499-.8948364-.000061-1.7990723.2919922-2.5606689.9043579v.000061c-1.4906006 1.1986084-1.9529419 3.2694702-1.1137085 4.9882202l14.7027588 30.111084c2.432373 4.5508423.1169434 11.9151611-1.1943359 20.1260986-.9174805 5.7453003-.9799805 9.5338745-.5372314 14.5067749.8930664 10.0305786 2.0079346 28.5461426 2.4638672 36.3612671.1191406 2.0410767 1.8086548 3.6314697 3.8532104 3.6314697h.5609131c2.0505371 0 3.7431641-1.6033325 3.8543091-3.6508179l1.90625-35.1307373c.0317383-.5848999.5142822-1.043396 1.1000366-1.0452271h.003479c.585144 0 1.0691528.4562378 1.1032104 1.0408325l2.0474854 35.1504517c.1188965 2.0411377 1.8087769 3.635498 3.8533936 3.635498 2.0407104 0 3.7286987-1.5864868 3.8527222-3.6233521.4679565-7.6848755 1.5558472-25.7335205 2.0690918-35.7580566.2584839-5.0474243.1638184-10.4251709-.6975098-15.118103-.9868164-5.3768921-1.3536377-7.3776855-1.6167603-9.3598633-.1341553-1.010437-.1077881-2.0359497.0685425-3.039917z"/><path d="m64 32c5.5228271 0 10-4.4771729 10-10 0-.5698242-.0587158-1.1248169-.1502686-1.6685791 1.279541 2.0220337 3.4310303 4.1716919 6.8328247 4.1716919 4.9735107 0 4.9146118-3.8973389 4.9146118-3.8973389-2.1879883-.1367798-4.0258179-2.3916016-6.5939331-8.0770874-3.0418701-6.7342529-7.5985107-6.3499756-7.5985107-6.3499756-5.1810303 0-6.3572388 4.4589233-6.6000366 5.8619385-.2661743-.0212402-.53302-.0406494-.8046875-.0406494-5.5228271 0-10 4.4771118-10 10 0 5.5228271 4.4771729 10 10 10zm-1.7522583-13.6727905c1.7114868 2.2855225 4.6749268 4.7183228 9.6119995 5.135498-.6900024 3.7142334-3.9486694 6.5372925-7.8597412 6.5372925-4.4111938 0-8-3.5888062-8-8 0-.2227173.0155029-.4415894.0334473-.65979 3.2655639-.362732 5.5349121-2.3446045 6.2142944-3.0130005z"/><ellipse cx="26.549896" cy="47.293671" rx="7.999996" ry="8.000006" transform="matrix(.9538053 -.3004254 .3004254 .9538053 -12.981755 10.160979)"/><ellipse cx="15.185394" cy="66.838837" rx="8.00002" ry="7.999981" transform="matrix(.9538053 -.3004254 .3004254 .9538053 -19.378599 7.649677)"/><ellipse cx="99.983002" cy="47.293671" rx="8.000006" ry="7.999996" transform="matrix(.9538053 -.3004254 .3004254 .9538053 -9.589537 32.222149)"/></svg>