<svg height='100px' width='100px'  fill="#625fab" xmlns="http://www.w3.org/2000/svg" xmlns:xlink="http://www.w3.org/1999/xlink" version="1.1" x="0px" y="0px" viewBox="0 0 128 128" style="enable-background:new 0 0 128 128;" xml:space="preserve"><g><path d="M79.3811035,71.8998413l-2.5314941-12.574646c-0.0037842-0.0187378-0.0098877-0.0365601-0.0136719-0.0552979   c0.147583-0.4767456,0.2492676-0.9747314,0.2883301-1.4934692c0.2349854-3.1235962-0.3725586-6.5769653-3.4713135-8.5582886   c0,0-0.4400635-7.1784668-6.9283447-10.8712769c0.5202637-1.0718994,0.8199463-2.2799072,0.8199463-3.5632935   c0-3.3302612-1.9765625-6.1746216-4.7716064-7.3421021c-2.2861328-7.3152466-9.1137695-12.6246338-17.182373-12.6246338   c-8.5026855,0-15.6103516,5.9024658-17.4943848,13.8285522c-1.7104492,1.4508057-2.8044434,3.6605835-2.8044434,6.1381836   c0,1.0530396,0.201416,2.0559082,0.5595703,2.9748535c-2.3409424,1.5065308-5.4104004,4.4814453-5.2993164,9.6994019   c0,0-0.1694336,0.0549316-0.4516602,0.1791382c-3.1882324,1.4030151-4.3999023,4.4208374-4.013916,7.2328491   c-0.8605957,1.3321533-1.4946289,2.8309937-1.8217773,4.4553833c-1.7861328,8.8720703-1.8212891,17.8779297-0.1054688,26.7666016   l5.0898438,26.3623047c0.2714844,1.4091797,1.5107422,2.4316406,2.9453125,2.4316406h5.65625h37.8701172   c0.9580078,0,1.8359375-0.4404297,2.4101562-1.2070312c0.5673828-0.7578125,0.7402344-1.7109375,0.4736328-2.6152344   c-0.9110107-3.093811-1.5195312-7.4365845-1.8828125-11.0574951l5.6611328-1.1339111   c3.7050781-0.7412109,6.9140625-3.2070312,8.5859375-6.5966797c1.203125-2.4414062,1.5595703-5.2529297,1.0058594-7.9169922   L79.3811035,71.8998413z M36.5775146,94.7182617c0.0010986-0.0003052,0.0023193-0.0001831,0.00354-0.0004883l0.026123-0.006897   l4.0480957-0.9979858c0.1169434-0.0288086,0.2197266-0.0829468,0.314209-0.1464233l2.7512207-0.7217407   c0.5341797-0.1396484,0.8535156-0.6865234,0.7128906-1.2207031c-0.1396484-0.5341797-0.6884766-0.8544922-1.2207031-0.7128906   l-2.0463867,0.5368652l-0.409668-1.9558105l0.1240234-0.03125c1.0224609-0.2548828,2.1054688-0.2607422,3.1337891-0.0175781   l6.6322021,1.5635376l0.1363525,0.0321655l2.0273438,10.0400391l-0.1195068,0.0530396l-3.2662354,1.4498901   c-2.6503906,1.1767578-5.6542969,1.421875-8.4560547,0.6875c-0.4326172-0.1123047-0.796875-0.40625-1-0.8046875   l-1.0527344-2.0693359c-0.5458984-1.0732422-1.5859375-1.7939453-2.7822266-1.9287109l-1.4208984-0.1591797   c-0.6923828-0.078125-1.2412109-0.5898438-1.3671875-1.2744141c-0.1494141-0.8144531,0.3632812-1.6074219,1.1660156-1.8056641   L36.5775146,94.7182617z M65.550415,98.2009277l-0.9862061,0.1975098l-9.855957,1.973938l-1.9377441-9.5981445   l12.1411133-3.7063599l1.0759277-0.3284302l1.0842285-0.3309937l3.199707-0.9768066   c0.5283203-0.1611328,0.8251953-0.7197266,0.6640625-1.2480469c-0.0926514-0.305603-0.3238525-0.5203247-0.6003418-0.6276245   c-0.201416-0.0782471-0.4241943-0.1064453-0.6477051-0.036438l-2.079834,0.6348877   c0.3137207-1.1738892,0.6796875-2.359436,1.1062012-3.5567627c1.8284912-5.1347046,0.4350586-11.1231079-0.2636719-13.5037842   c-0.1766357-0.6022339-0.3109131-0.984436-0.3349609-1.0509033c-0.1875-0.5185547-0.7626953-0.7841797-1.28125-0.5996094   c-0.5195312,0.1884766-0.7871094,0.7617188-0.5996094,1.28125c0.0273438,0.0732422,2.6484375,7.4375,0.5947266,13.2021484   c-0.5897217,1.6558228-1.0645752,3.2913818-1.4486084,4.9075317l-14.03125,4.2830811l-0.6395264-0.1508179l-1.1334229-5.4129639   c1.9216309-0.9517822,3.0461426-3.0969849,2.5863037-5.293396c-0.5457764-2.6063232-3.1009521-4.2767334-5.7072754-3.7310791   c-2.6063232,0.5457153-4.2768555,3.1008911-3.7310791,5.7072144c0.4598389,2.1964111,2.3504639,3.7103271,4.4925537,3.8112183   l0.9018555,4.3080444l-3.6450195-0.8594971c-1.3359375-0.3144531-2.7451172-0.3066406-4.0732422,0.0234375l-1.0605469,0.2626953   c-0.1708984,0.0424805-0.3093262,0.1366577-0.4299316,0.2490845l-0.4501953-2.1503296   c1.9216309-0.9517822,3.0461426-3.0969238,2.5864258-5.2932739l-2.3596191,0.4940186   c0.2728271,1.3031616-0.5623779,2.5807495-1.8656006,2.8536377c-1.3031006,0.2728271-2.5806885-0.562439-2.8536377-1.8655396   c-0.2728271-1.3032227,0.5625-2.5808105,1.8656006-2.8536377l-0.4940186-2.3595581   c-2.6063232,0.5456543-4.2768555,3.1008301-3.7312012,5.7072144c0.4599609,2.1963501,2.3505859,3.7103271,4.4925537,3.8112183   l1.2706299,6.0687256l-1.217041,0.3192139l-2.1206055,0.5231323c-1.828125,0.4511719-2.9941406,2.2558594-2.6542969,4.1083984   c0.2851562,1.5576172,1.5351562,2.7236328,3.1103516,2.9013672l1.4208984,0.1591797   c0.5263672,0.0585938,0.9833984,0.3759766,1.2226562,0.8466797l1.0537109,2.0703125   c0.4619141,0.9072266,1.2919922,1.5751953,2.2763672,1.8330078c1.2265625,0.3203125,2.4853516,0.4794922,3.7431641,0.4794922   c2.0664062,0,4.1279297-0.4287109,6.03125-1.2744141l4.1181641-1.8291016   c0.0791016-0.0352173,0.144043-0.0880737,0.2094727-0.1400757l10.1873779-2.0405273   c0.3771973,3.6832886,1.0030518,8.0662231,1.9342041,11.227478c0.0859375,0.2929688,0.0292969,0.6035156-0.1572266,0.8525391   c-0.1923828,0.2578125-0.4873047,0.4052734-0.8085938,0.4052734h-36.578125   c0.8723145-3.5880127,1.4362793-8.2057495,1.6748047-13.7675781c0.2314453-5.4257812-0.6025391-11.2197266-2.4794922-17.2207031   c-0.1628418-0.5214844-0.2875977-1.0565186-0.395752-1.5958862c-0.644043-3.2086792-0.3908691-6.6355591,0.0253906-9.2540894   c0.4041748-2.5432739,0.9536133-4.3223877,0.9660645-4.3609619c0.1669922-0.5263672-0.1240234-1.0888672-0.6503906-1.2558594   c-0.5273438-0.1630859-1.0878906,0.125-1.2558594,0.6503906c-0.1181641,0.3701172-2.8623047,9.1669922-0.5976562,16.4130859   c0.6171875,1.9736328,1.1080322,3.9196777,1.4902344,5.836792c0.7373047,3.6976929,1.0454102,7.281189,0.8994141,10.7012939   c-0.1647949,3.8446655-0.4855957,7.215332-0.9564209,10.0838623c-0.2261963,1.3786011-0.4908447,2.6282959-0.786499,3.7696533   h-4.8820801c-0.4785156,0-0.8916016-0.3408203-0.9824219-0.8105469l-5.0898438-26.3623047   c-1.6660156-8.6318359-1.6308594-17.3769531,0.1035156-25.9931641c0.1586914-0.7884521,0.409668-1.5383911,0.7246094-2.251709   c1.7286377-3.9154663,5.6450195-6.5773926,10.0595703-6.5773926h1.7880859v7.2753906c0,1.6542969,1.3457031,3,3,3h4.1220703   c0.2626953,0,0.5205078,0.1064453,0.7070312,0.2929688l0.4744873,0.4744873l4.0001221,4.0001221   c0.5810547,0.5810547,1.3300781,0.8867188,2.1025391,0.8867188c0.3886719,0,0.7841797-0.078125,1.1669922-0.2363281   c0.3217773-0.1332397,0.6046143-0.3174438,0.8515625-0.5350342c0.2469482,0.2175903,0.5297852,0.4017944,0.8515625,0.5350342   c0.3828125,0.1582031,0.7783203,0.2363281,1.1669922,0.2363281c0.7724609,0,1.5214844-0.3056641,2.1025391-0.8867188   l2.9804688-2.9804077l1.4941406-1.4942017c0.1865234-0.1865234,0.4443359-0.2929688,0.7070312-0.2929688h4.1220703   c1.6542969,0,3-1.3457031,3-3V50.890625h2.4570312c5.21875,0,9.7539062,3.7128906,10.7841797,8.8291016l0.4345703,2.1587524   l0.8239746,4.0930176c-0.0012207,0.0727539-0.0141602,0.1437378,0.0012207,0.2179565l0.3151855,1.5140381l0.9069824,4.3572998   l0.0758057,0.3639526l0.1020508,0.4899902l2.4671631,11.8518677c0.4648438,2.2285156,0.1660156,4.5810547-0.8408203,6.6240234   c-1.3984375,2.8369141-4.0839844,4.9003906-7.1845703,5.5205078l-5.4519043,1.0919189L65.550415,98.2009277z M44.2226562,63.8125   c0,0.6201172-0.4726562,0.8642578-0.6171875,0.9238281c-0.1455078,0.0595703-0.6503906,0.2207031-1.0898438-0.2167969   l-2.3830566-2.3829956l-2.0915527-2.0916138c-0.5664062-0.5664062-1.3203125-0.8789062-2.1210938-0.8789062h-4.1220703   c-0.5517578,0-1-0.4482422-1-1V50.890625h2.71875l10.7060547,10.7836304v0.7362061V63.8125z M29.7205811,30.8746338   c3.0930176-0.1990356,5.5789795-1.3598633,7.4117432-2.6486206c1.2502441-0.8790894,2.1929932-1.8018799,2.8270264-2.5111084   c3.1781006,1.8395996,7.6806641,3.7008057,13.7176514,4.617981c2.3592529,0.3584595,4.9490967,0.5736084,7.7900391,0.5841064   c0.0743408,0.6242676,0.1235352,1.2559204,0.1235352,1.8998413c0,3.6418457-1.2368164,6.9924927-3.2937012,9.6845703   c-2.9260254,3.8295898-7.5257568,6.3154297-12.7062988,6.3154297c-5.0968018,0-9.6340332-2.4039917-12.5661621-6.1282959   c-2.1433105-2.72229-3.4338379-6.1461182-3.4338379-9.8717041C29.5905762,32.1582031,29.6428223,31.5126343,29.7205811,30.8746338z    M46.2226562,62.5444336v-0.7425537L57.5839844,50.890625h2.0634766v7.2753906c0,0.5517578-0.4482422,1-1,1h-4.1220703   c-0.8007812,0-1.5546875,0.3125-2.1210938,0.8789062l-2.7307129,2.7307129l-1.7438965,1.7438965   c-0.4384766,0.4365234-0.9443359,0.2773438-1.0898438,0.2167969c-0.1445312-0.0595703-0.6171875-0.3037109-0.6171875-0.9238281   V62.5444336z"></path><path d="M61,69h-6c-0.5527344,0-1,0.4472656-1,1s0.4472656,1,1,1h6c0.5527344,0,1-0.4472656,1-1S61.5527344,69,61,69z"></path><path d="M99.3681641,22.0933228c-0.4125977,0-0.8236084,0.0532837-1.2226562,0.1584473l-0.2757568,0.0726318   c-2.9121094,0.7675171-5.9732666,0.7675171-8.885376,0L88.7084961,22.25177   c-0.3989258-0.1051636-0.8099365-0.1584473-1.2226562-0.1584473c-2.6496582,0-4.7976074,2.1480103-4.7976074,4.7977295   c0,2.777771,0.5895996,5.5239258,1.7301025,8.0568848c0.6812744,1.5131226,1.0335693,3.1536255,1.0335693,4.8130493v6.9743042   c0,0.9296875,0.7536621,1.6832886,1.6833496,1.6832886c0.657959,0,1.2556152-0.3834229,1.5300293-0.9815063l3.6257324-7.9049683   c0.2028809-0.442627,0.6452637-0.7263794,1.1323242-0.7263794c0.4865723,0,0.9287109,0.2833862,1.1318359,0.7255859   l3.6333008,7.9067993c0.2745361,0.5975342,0.8718262,0.9804688,1.529541,0.9804688H99.71875   c0.9296875,0,1.6833496-0.7536011,1.6833496-1.6832886v-6.9743042c0-1.6594238,0.3522949-3.2999268,1.0336914-4.8130493   c1.1403809-2.532959,1.7301025-5.2791138,1.7301025-8.0568848v-0.000061   C104.1658936,24.241333,102.0178223,22.0933228,99.3681641,22.0933228z"></path></g></svg>