<svg xmlns="http://www.w3.org/2000/svg" data-name="Layer 1" viewBox="0 0 512 640" x="0px" y="0px"><title>dental Care 2</title><path d="M289.869,99.033c-13.482,2.628-26.885-2.951-35.789-7.381-1.848-.918-4.271-2.318-7.076-3.938-9-5.2-22.606-13.053-33.149-14.452-22.423-2.97-38.82,6.366-44.978,25.626-5.826,18.229-.143,39.243,12.41,45.889,13.047,6.908,19.465,10.953,23,16.667,3.8,6.14,3.25,12.7,2.414,22.621-.125,1.492-.26,3.09-.391,4.81-1.792,23.428,1.461,53.792,15.926,69.04a7.5,7.5,0,0,0,.819.328,1.336,1.336,0,0,0,1.629-.531,1.3,1.3,0,0,0,.082-.783c-.03-.162-.055-.326-.071-.49-.246-2.326-5.709-57.324,19-87.4a17.451,17.451,0,0,1,26.951.15c24.221,30.221,18.817,84.932,18.575,87.246-.018.166-.041.33-.073.494a1.314,1.314,0,0,0,.082.784,1.335,1.335,0,0,0,1.631.529,7.268,7.268,0,0,0,.817-.327c14.463-15.247,17.718-45.612,15.927-69.04-.13-1.712-.265-3.3-.39-4.789-.834-9.927-1.385-16.486,2.416-22.626,3.531-5.7,9.947-9.755,22.992-16.68,13.281-7.05,18.654-31.859,11.055-51.051-4.41-11.136-16.528-28.532-48.147-19.912-9.15,2.5-13.847,5.408-19.287,8.78-1.609,1-3.305,2.049-5.184,3.131,6.305,1.983,11.7,2.466,16.508,1.526a6,6,0,0,1,2.3,11.779Z"/><path d="M348.254,293.257c-.047.028-.1.054-.143.08l-13.392,7.283a46.481,46.481,0,0,1,17.9,8l27.713-14.933A31.333,31.333,0,0,0,348.254,293.257Z"/><path d="M93.107,455.326a7.183,7.183,0,1,0-7.183-7.183A7.19,7.19,0,0,0,93.107,455.326Z"/><path d="M369.215,331.024l3.31-1.745,54.2-29.24c-6.356-6.341-16.069-8.794-23.272-5.183l-41.762,22.5A46.607,46.607,0,0,1,369.215,331.024Z"/><path d="M283.66,410.681a94.289,94.289,0,0,0,57.856-8.042l136.828-93.946a26.945,26.945,0,0,0-32.533-5.315l-67.637,36.489-6.483,3.417c.065,1,.11,2.015.11,3.036a6,6,0,0,1-6,6c-.09,0-.18,0-.272-.006L318.838,350.2a225.21,225.21,0,0,0-40.967,1.891,6,6,0,1,1-1.644-11.886,237.49,237.49,0,0,1,43.154-1.994l39.848,1.8a34.761,34.761,0,0,0-34.125-28.4H270.361a71.485,71.485,0,0,1-30.943-7.09l-5.645-2.731a84.744,84.744,0,0,0-88.015,8.469l-13.442,11.967a59.421,59.421,0,0,1-22.494,12.547l26.985,88.512,37.906-23.963c.09-.058.183-.113.277-.165a36.441,36.441,0,0,1,26.58-3.6Z"/><path d="M139.619,473.666,88.35,305.5H33.656L54.164,473.666ZM93.107,428.96a19.183,19.183,0,1,1-19.183,19.183A19.2,19.2,0,0,1,93.107,428.96Z"/><path d="M408.5,112.391a6,6,0,0,0,6,6h34.941a6,6,0,0,0,0-12H414.5A6,6,0,0,0,408.5,112.391Z"/><path d="M432.754,39.533l-34.94,26.175a6,6,0,1,0,7.2,9.6l34.939-26.175a6,6,0,0,0-7.195-9.6Z"/><path d="M397.814,159.073l34.94,26.175a6,6,0,0,0,7.195-9.6L405.01,149.47a6,6,0,1,0-7.2,9.6Z"/><path d="M58.322,112.391a6,6,0,0,0,6,6h34.94a6,6,0,0,0,0-12H64.322A6,6,0,0,0,58.322,112.391Z"/><path d="M77.414,186.447a5.981,5.981,0,0,0,3.594-1.2l34.939-26.175a6,6,0,0,0-7.2-9.6l-34.94,26.175a6,6,0,0,0,3.6,10.8Z"/><path d="M108.752,75.312a6,6,0,0,0,7.2-9.6L81.008,39.533a6,6,0,1,0-7.2,9.6Z"/><text x="0" y="527" fill="#000000" font-size="5px" font-weight="bold" font-family="'Helvetica Neue', Helvetica, Arial-Unicode, Arial, Sans-serif">Created by Icongeek26</text><text x="0" y="532" fill="#000000" font-size="5px" font-weight="bold" font-family="'Helvetica Neue', Helvetica, Arial-Unicode, Arial, Sans-serif">from the Noun Project</text></svg>