<svg xmlns="http://www.w3.org/2000/svg" xmlns:xlink="http://www.w3.org/1999/xlink" version="1.1" x="0px" y="0px" viewBox="0 0 100 125" style="enable-background:new 0 0 100 100;" xml:space="preserve"><g><path d="M22.3818359,53.4726563c3.4106445,0,6.1850586-2.7744141,6.1850586-6.1845703s-2.7744141-6.1845703-6.1850586-6.1845703   c-3.4101563,0-6.1845703,2.7744141-6.1845703,6.1845703S18.9716797,53.4726563,22.3818359,53.4726563z M22.3818359,43.6035156   c2.0317383,0,3.6850586,1.652832,3.6850586,3.6845703s-1.6533203,3.6845703-3.6850586,3.6845703   s-3.6845703-1.652832-3.6845703-3.6845703S20.3500977,43.6035156,22.3818359,43.6035156z"/><path d="M22.3818359,54.2734375c-5.6088867,0-10.1723633,4.5634766-10.1723633,10.1728516v8.9506836   c0,0.6904297,0.5595703,1.25,1.25,1.25h17.8452148c0.6904297,0,1.25-0.5595703,1.25-1.25v-8.9506836   C32.5546875,58.8369141,27.9912109,54.2734375,22.3818359,54.2734375z M30.0546875,72.1469727H14.7094727v-7.7006836   c0-4.230957,3.4418945-7.6728516,7.6723633-7.6728516c4.230957,0,7.6728516,3.4418945,7.6728516,7.6728516V72.1469727z"/><path d="M77.6181641,53.4726563c3.4101563,0,6.1845703-2.7744141,6.1845703-6.1845703s-2.7744141-6.1845703-6.1845703-6.1845703   c-3.4106445,0-6.1850586,2.7744141-6.1850586,6.1845703S74.2075195,53.4726563,77.6181641,53.4726563z M77.6181641,43.6035156   c2.0317383,0,3.6845703,1.652832,3.6845703,3.6845703s-1.652832,3.6845703-3.6845703,3.6845703   s-3.6850586-1.652832-3.6850586-3.6845703S75.5864258,43.6035156,77.6181641,43.6035156z"/><path d="M77.6181641,54.2734375c-5.609375,0-10.1728516,4.5634766-10.1728516,10.1728516v8.9506836   c0,0.6904297,0.5595703,1.25,1.25,1.25h17.8452148c0.6904297,0,1.25-0.5595703,1.25-1.25v-8.9506836   C87.7905273,58.8369141,83.2270508,54.2734375,77.6181641,54.2734375z M85.2905273,72.1469727H69.9453125v-7.7006836   c0-4.230957,3.4418945-7.6728516,7.6728516-7.6728516c4.2304688,0,7.6723633,3.4418945,7.6723633,7.6728516V72.1469727z"/><path d="M58.4262695,49.5297852c0-4.6464844-3.7797852-8.4262695-8.4262695-8.4262695s-8.4262695,3.7797852-8.4262695,8.4262695   S45.3535156,57.9560547,50,57.9560547S58.4262695,54.1762695,58.4262695,49.5297852z M44.0737305,49.5297852   c0-3.2675781,2.6586914-5.9262695,5.9262695-5.9262695s5.9262695,2.6586914,5.9262695,5.9262695   S53.2675781,55.4560547,50,55.4560547S44.0737305,52.7973633,44.0737305,49.5297852z"/><path d="M50,60.2563477c-7.8447266,0-14.2265625,6.3818359-14.2265625,14.2265625V87.5c0,0.6904297,0.5595703,1.25,1.25,1.25   h25.953125c0.6904297,0,1.25-0.5595703,1.25-1.25V74.4829102C64.2265625,66.6381836,57.8447266,60.2563477,50,60.2563477z    M61.7265625,86.25h-23.453125V74.4829102c0-6.4658203,5.2607422-11.7265625,11.7265625-11.7265625   s11.7265625,5.2607422,11.7265625,11.7265625V86.25z"/><path d="M43.5997314,20.7014771c-0.807251,0-1.4616699,0.6544189-1.4616699,1.4616089   c0,0.807251,0.6544189,1.4616699,1.4616699,1.4616699c0.8071899,0,1.4616089-0.6544189,1.4616089-1.4616699   C45.0613403,21.355896,44.4069214,20.7014771,43.5997314,20.7014771z"/><path d="M50,20.7014771c-0.807251,0-1.4616089,0.6544189-1.4616089,1.4616089c0,0.807251,0.6543579,1.4616699,1.4616089,1.4616699   s1.4616089-0.6544189,1.4616089-1.4616699C51.4616089,21.355896,50.807251,20.7014771,50,20.7014771z"/><path d="M56.4002686,20.7014771c-0.8071899,0-1.4616089,0.6544189-1.4616089,1.4616089   c0,0.807251,0.6544189,1.4616699,1.4616089,1.4616699c0.807251,0,1.4616699-0.6544189,1.4616699-1.4616699   C57.8619385,21.355896,57.2075195,20.7014771,56.4002686,20.7014771z"/><path d="M68.3027344,34.1411133l-3.2890625-7.0761719c0.0810547-0.4243164,0.121582-0.8706055,0.121582-1.3320313V18.590332   c0-4.0473633-3.2924805-7.340332-7.3398438-7.340332H42.2045898c-4.0473633,0-7.3398438,3.2929688-7.3398438,7.340332v7.1425781   c0,0.4614258,0.0405273,0.9077148,0.121582,1.3320313l-3.2890625,7.0761719   c-0.2128906,0.4575195-0.1293945,0.9985352,0.2114258,1.3710938c0.3408203,0.3720703,0.8740234,0.5019531,1.3466797,0.331543   l7.8823242-2.8491211c0.3486328,0.0517578,0.7060547,0.078125,1.0668945,0.078125h3.8398438l2.815918,6.25   C49.0624886,39.7714844,49.5083008,40.0595703,50,40.0595703s0.9374886-0.2880859,1.1396484-0.7368164l2.815918-6.25h3.8398438   c0.362793,0,0.7226563-0.0263672,1.0732422-0.0791016l7.8754883,2.8496094   c0.4741211,0.1708984,1.0058594,0.0410156,1.347168-0.3310547C68.4321289,35.1396484,68.515625,34.5991211,68.3027344,34.1411133z    M59.4091797,30.5307617c-0.2148438-0.078125-0.4604492-0.097168-0.6845703-0.0493164   c-0.2973633,0.0605469-0.6098633,0.0913086-0.9291992,0.0913086h-4.6479492c-0.4916992,0-0.9375,0.2880859-1.1396484,0.7368164   L50,35.7661133l-2.0078125-4.456543c-0.2021484-0.4487305-0.6479492-0.7368164-1.1396484-0.7368164h-4.6479492   c-0.3193359,0-0.6318359-0.0307617-0.9291992-0.0913086c-0.0825195-0.0170898-0.1665039-0.0253906-0.25-0.0253906   c-0.144043,0-0.2880859,0.0249023-0.4248047,0.0742188l-5.3706055,1.9414063l2.203125-4.7407227   c0.1245117-0.2670898,0.1503906-0.5698242,0.0732422-0.8544922c-0.0942383-0.3457031-0.1416016-0.7304688-0.1416016-1.1435547   V18.590332c0-2.6689453,2.1713867-4.840332,4.8398438-4.840332h15.5908203c2.668457,0,4.8398438,2.1713867,4.8398438,4.840332   v7.1425781c0,0.4130859-0.0473633,0.7978516-0.1416016,1.1435547c-0.0771484,0.284668-0.0512695,0.5874023,0.0732422,0.8544922   l2.2026367,4.7392578L59.4091797,30.5307617z"/></g><text x="0" y="115" fill="#000000" font-size="5px" font-weight="bold" font-family="'Helvetica Neue', Helvetica, Arial-Unicode, Arial, Sans-serif">Created by Edwin PM</text><text x="0" y="120" fill="#000000" font-size="5px" font-weight="bold" font-family="'Helvetica Neue', Helvetica, Arial-Unicode, Arial, Sans-serif">from the Noun Project</text></svg>