<svg id="Layer_1" data-name="Layer 1" xmlns="http://www.w3.org/2000/svg" viewBox="0 0 221.48 173.1"><defs><style>.cls-1,.cls-2,.cls-3,.cls-4,.cls-5{fill:none;stroke-linecap:round;stroke-linejoin:round;stroke-width:3.9px;}.cls-1{stroke:#655dc6;}.cls-2{stroke:#93d500;}.cls-3{stroke:#ff8300;}.cls-4{stroke:#00a6ce;}.cls-5{stroke:#a2d45e;}.cls-6{fill:#fff;}</style></defs><path class="cls-1" d="M14.51,67v25.9m0,0H25.14m0,0V75.16H36.21V92.87H69.85m0,0V66.75M8.76,71.18,42.07,37.87,75.5,71.29M65.42,60.72V2h65.07V92.82h-19.1v-13H87.77V92.87H68.59M203,48.1V92.82H181.27V75.55h-12.4V92.82H158.25m0-51.8v51.8H130.49m.36-54.95L143,25.75M208.72,48.1H165.33L143.64,26.41h42.94Z"/><path class="cls-2" d="M62.22,75.14a9.35,9.35,0,0,1-18.69,0Z"/><path class="cls-1" d="M136.74,61.67a8,8,0,0,0,13.8,0m-13.8-12a8,8,0,0,0,13.8,0"/><path class="cls-2" d="M136.74,75.14a8,8,0,0,0,13.8,0"/><path class="cls-1" d="M59.61,66.55a7.62,7.62,0,0,0-13.19,0"/><path class="cls-3" d="M37.94,66.55a7.62,7.62,0,0,0-13.19,0"/><path class="cls-4" d="M94.12,24.6H81.53V14.28A2.51,2.51,0,0,1,84,11.76h7.57a2.51,2.51,0,0,1,2.51,2.52ZM166.47,66a9.57,9.57,0,0,1,19.13,0Z"/><path class="cls-1" d="M94.12,47.24H81.52V36.92A2.52,2.52,0,0,1,84,34.4H91.6a2.51,2.51,0,0,1,2.52,2.52ZM115.93,24.6h-12.6V14.28a2.52,2.52,0,0,1,2.52-2.52h7.56a2.52,2.52,0,0,1,2.52,2.52Z"/><path class="cls-5" d="M115.93,47.24h-12.6V36.92a2.51,2.51,0,0,1,2.52-2.52h7.56a2.52,2.52,0,0,1,2.52,2.52Z"/><path class="cls-3" d="M114.36,57.61a15.45,15.45,0,0,1-29.42,0"/><path class="cls-6" d="M25.32,108.76a10.37,10.37,0,0,1,7,2.3,4.82,4.82,0,0,1,1.82,3.45c0,3-3.53,3.29-3.77,3.09a5.32,5.32,0,0,0-5-3.81c-3.49,0-5.87,2.86-5.87,8.29s2.42,8.25,5.91,8.25c2.65,0,4.32-1.67,5-4.17.08-.19,3.89,0,3.89,3.06a5.23,5.23,0,0,1-1.9,3.69,10.29,10.29,0,0,1-7.18,2.45c-7.06,0-11.66-5.27-11.66-13.2s4.64-13.4,11.78-13.4"/><path class="cls-6" d="M45.62,119.38c-2.62,0-4.32,2-4.32,5.83S43,131,45.62,131s4.24-2,4.24-5.79-1.66-5.87-4.24-5.87m0-4.28c5.59,0,9.32,4,9.32,10.19s-3.73,10.07-9.4,10.07-9.36-4-9.36-10.15S40,115.1,45.66,115.1"/><path class="cls-6" d="M86.14,122.67v9.84c0,1.82-1,2.54-2.34,2.54h-.63c-1.47,0-2.42-.68-2.42-2.54v-9.32c0-2.38-.87-3.61-2.82-3.61a3.55,3.55,0,0,0-3.17,2.22v10.71c0,1.82-1,2.54-2.34,2.54h-.63c-1.43,0-2.42-.68-2.42-2.54v-9.36c0-2.34-.84-3.57-2.78-3.57a3.53,3.53,0,0,0-3.17,2.18v10.75c0,1.82-1,2.54-2.34,2.54h-.63c-1.43,0-2.42-.68-2.42-2.54V115.89c0-.19.95-.59,2.06-.59,1.39,0,2.58.75,3,3.09l0,.2a6.13,6.13,0,0,1,5.51-3.53,5.39,5.39,0,0,1,5.48,3.77,6.42,6.42,0,0,1,5.82-3.77c4.49,0,6.23,3.41,6.23,7.61"/><path class="cls-6" d="M118.1,122.67v9.84c0,1.82-.95,2.54-2.34,2.54h-.64c-1.46,0-2.41-.68-2.41-2.54v-9.32c0-2.38-.88-3.61-2.82-3.61a3.55,3.55,0,0,0-3.17,2.22v10.71c0,1.82-1,2.54-2.34,2.54h-.64c-1.42,0-2.42-.68-2.42-2.54v-9.36c0-2.34-.83-3.57-2.77-3.57a3.53,3.53,0,0,0-3.17,2.18v10.75c0,1.82-1,2.54-2.34,2.54H92.4c-1.42,0-2.42-.68-2.42-2.54V115.89c0-.19,1-.59,2.07-.59,1.38,0,2.57.75,3,3.09l0,.2a6.12,6.12,0,0,1,5.51-3.53,5.37,5.37,0,0,1,5.47,3.77,6.43,6.43,0,0,1,5.83-3.77c4.48,0,6.23,3.41,6.23,7.61"/><path class="cls-6" d="M138.91,117.84v16.65c0,.2-.95.6-2.06.6a2.68,2.68,0,0,1-2.77-2,10.63,10.63,0,0,1-.24-1.31,6.32,6.32,0,0,1-5.79,3.57c-4.56,0-6.35-3.37-6.35-7.77v-9.75c0-1.83.92-2.54,2.34-2.54h.6c1.51,0,2.46.63,2.46,2.54v9.32c0,2.3,1,3.68,2.93,3.68a3.69,3.69,0,0,0,3.49-2.26V117.84c0-1.83.91-2.54,2.34-2.54h.6c1.5,0,2.45.63,2.45,2.54"/><path class="cls-6" d="M160.21,122.79v9.68c0,1.86-.92,2.58-2.34,2.58h-.64c-1.51,0-2.42-.68-2.42-2.58v-9.2c0-2.3-1-3.69-2.93-3.69a3.77,3.77,0,0,0-3.53,2.26v10.63c0,1.86-.91,2.58-2.34,2.58h-.63c-1.51,0-2.42-.68-2.42-2.58V115.89c0-.19.95-.59,2.06-.59,1.39,0,2.62.79,3,3.13v.24a6.4,6.4,0,0,1,5.87-3.61c4.52,0,6.35,3.37,6.35,7.73"/><path class="cls-6" d="M164.13,117.88c0-1.87.91-2.58,2.38-2.58h.59c1.51,0,2.42.67,2.42,2.58v14.63c0,1.82-.87,2.54-2.34,2.54h-.59c-1.51,0-2.46-.68-2.46-2.54Zm2.74-11.15a3,3,0,1,1,0,6,3,3,0,1,1,0-6"/><path class="cls-6" d="M175,129.26v-9.44h-.91a1.75,1.75,0,0,1-2-1.94v-.48a1.72,1.72,0,0,1,1.94-1.9h1V113c0-1.79.88-2.58,2.38-2.58h.56c1.5,0,2.42.68,2.42,2.58v2.46h2.85c1.31,0,2,.63,2,1.86v.48a1.77,1.77,0,0,1-2,2h-2.93v8.29c0,2,.59,2.73,1.78,2.73a2.66,2.66,0,0,0,2.18-1.15,2.28,2.28,0,0,1,1.15,2.22,2.79,2.79,0,0,1-1,2.22,5.21,5.21,0,0,1-3.73,1.23c-3.64,0-5.67-1.94-5.67-6.1"/><path class="cls-6" d="M190.85,140.68l3.1-7a2.07,2.07,0,0,1-1.87-1.35l-5.83-15.46c-.08-.32,1.47-1.59,3-1.59,1.23,0,2.38.67,2.89,2.78l3.53,11.69L198.86,118c.48-2.19,1.71-2.78,2.94-2.78,1.47,0,3,1.27,2.93,1.59l-7.81,22.6c-.71,2.18-1.86,2.85-3.21,2.85a3.29,3.29,0,0,1-2.86-1.62"/><path class="cls-6" d="M1.43,170.25A4.3,4.3,0,0,1,0,167.39c0-1.31,1.47-1.74,1.51-1.58,1,2.57,3.64,4.68,7.93,4.68,3.88,0,5.91-1.79,5.91-4.68,0-2.62-2.46-3.65-5.52-4.92s-6.38-2.93-6.38-7.1c0-4,3.25-7.29,8.68-7.29,3.49,0,5.91,1.15,7.22,2.49a3.66,3.66,0,0,1,1.27,2.58c0,1.31-1.47,1.79-1.55,1.63C18.12,150.94,15.78,149,12,149c-3.37,0-5.59,1.91-5.59,4.44,0,2.78,2.3,3.77,5.56,5.12s6.38,2.89,6.38,6.9c0,4.32-3.13,7.53-9,7.53a11.31,11.31,0,0,1-7.93-2.77"/><path class="cls-6" d="M47.26,170.05a22.66,22.66,0,0,1,1-4.84,26,26,0,0,0,1-5.23c0-2.62-1.55-4.21-3.85-4.21-2.73,0-4.48,1.43-6,4L37,171.32c-.23,1.07-.75,1.39-1.54,1.39h-.28c-.71,0-1.27-.28-1-1.39l2.1-10c.72-3.3-1-5.56-3.61-5.56s-4.4,1.35-6.06,4l-2.46,11.58c-.2,1.11-.72,1.39-1.51,1.39h-.32c-.71,0-1.23-.32-1-1.39L25,153.71a1,1,0,0,1,.71-.2c.88,0,1.67.4,1.51,2.07,0,.39-.08.79-.16,1.27a7.75,7.75,0,0,1,6.39-3.61A5.38,5.38,0,0,1,39,157.56a8.27,8.27,0,0,1,7.25-4.32,5.78,5.78,0,0,1,5.95,6.1,25.5,25.5,0,0,1-1.19,6,22.1,22.1,0,0,0-.91,4.28c0,1.19.63,1.51,1.67,1.63.07,0,0,1.62-1.83,1.62a2.57,2.57,0,0,1-2.7-2.85"/><path class="cls-6" d="M59.71,147.92a1.9,1.9,0,0,1,2-2,1.48,1.48,0,0,1,1.67,1.55,1.93,1.93,0,0,1-1.94,2.1,1.55,1.55,0,0,1-1.71-1.63m-4.08,20.54,2.89-13.56c.2-1,.6-1.39,1.31-1.39h.4c.71,0,1.39.32,1.15,1.39l-2.9,13.6c-.43,2.14.12,2.78,1.71,2.86,0,0,0,1.54-1.83,1.54-2.34,0-3.37-1.58-2.73-4.44"/><path class="cls-6" d="M64.07,168.46l4.6-21.57c.2-1,.6-1.35,1.31-1.35h.4c.71,0,1.39.32,1.15,1.35l-4.6,21.61c-.44,2.14.12,2.78,1.7,2.86,0,0,0,1.54-1.82,1.54-2.34,0-3.37-1.58-2.74-4.44"/><path class="cls-6" d="M79.42,162c6.5,0,8.21-1.82,8.21-3.77,0-1.35-1.35-2.73-4.09-2.73a8.81,8.81,0,0,0-8.13,6.26,30.09,30.09,0,0,0,4,.24m-7.34,3.25c0-6.66,5-12,11.62-12,4.24,0,6.66,2.1,6.66,4.95,0,3.49-2.42,5.91-10.7,5.91-1.39,0-2.94-.08-4.72-.24a8.24,8.24,0,0,0-.12,1.39c0,3.25,1.94,5.43,5.55,5.43a6.92,6.92,0,0,0,6.11-3.09c.15-.08,1.42.24,1.42,1.27a2.41,2.41,0,0,1-1,1.82c-1.54,1.55-3.65,2.34-6.66,2.34-5.23,0-8.17-3.17-8.17-7.73"/><path class="cls-6" d="M91.79,170.57a2.89,2.89,0,0,1-1-1.87,1.59,1.59,0,0,1,1.31-1.51,7.44,7.44,0,0,0,6.58,3.53c2.85,0,4.48-1.26,4.48-3.13s-1.79-2.38-4.28-3.25c-2.66-1-5.56-2.14-5.56-5.47,0-3.13,2.74-5.63,7-5.63a8.89,8.89,0,0,1,6.27,2.22,2.91,2.91,0,0,1,.95,1.9c0,1.19-1.27,1.63-1.39,1.47a6.6,6.6,0,0,0-6-3.29c-2.73,0-4.2,1.46-4.2,3.05,0,1.82,1.94,2.58,4.48,3.53,2.74,1,5.47,2.14,5.47,5.19,0,3.37-2.69,5.71-7.33,5.71a9.68,9.68,0,0,1-6.86-2.45"/><path class="cls-6" d="M132,159.7c0-5.47-2.53-8-6.7-8h-2.93v16.22h2.89c4.13,0,6.74-2.62,6.74-8.17m-15.22-9.56a2.91,2.91,0,0,1,2.93-3.21h5.87c7.57,0,12.17,4.84,12.17,12.73s-4.87,12.93-12.49,12.93h-5.35a3.15,3.15,0,0,1-3.13-3.17Z"/><path class="cls-6" d="M149.12,156.65c-2.26,0-3.76,1.82-4,4.64h7.65c-.08-2.86-1.31-4.64-3.65-4.64m0-3.89c5.4,0,8.65,3.73,8.65,9.56v.35c0,1-.36,1.55-1.43,1.55H145c0,.2,0,.48.08.68a4.33,4.33,0,0,0,4.52,4,4.46,4.46,0,0,0,4.4-2.74c.44,0,2.93.24,2.93,2.38a3.77,3.77,0,0,1-1.74,3,10,10,0,0,1-5.79,1.54c-5.63,0-9.36-3.76-9.36-10s3.65-10.31,9.08-10.31"/><path class="cls-6" d="M178.07,160.49v9.68c0,1.86-.91,2.58-2.34,2.58h-.64c-1.5,0-2.42-.68-2.42-2.58V161c0-2.3-1-3.69-2.93-3.69a3.79,3.79,0,0,0-3.53,2.26v10.63c0,1.86-.91,2.58-2.34,2.58h-.63c-1.51,0-2.42-.68-2.42-2.58V153.59c0-.19,1-.59,2.06-.59,1.39,0,2.62.79,3,3.13v.24a6.4,6.4,0,0,1,5.87-3.61c4.52,0,6.35,3.37,6.35,7.73"/><path class="cls-6" d="M183.18,167v-9.44h-.91a1.75,1.75,0,0,1-2-1.94v-.48a1.72,1.72,0,0,1,1.94-1.9h1v-2.46c0-1.79.87-2.58,2.38-2.58h.56c1.5,0,2.41.68,2.41,2.58v2.46h2.86c1.31,0,2,.63,2,1.86v.48a1.77,1.77,0,0,1-2,2h-2.94v8.29c0,2,.6,2.73,1.79,2.73a2.67,2.67,0,0,0,2.18-1.15,2.28,2.28,0,0,1,1.15,2.22,2.82,2.82,0,0,1-1,2.22,5.21,5.21,0,0,1-3.73,1.23c-3.65,0-5.67-1.94-5.67-6.1"/><path class="cls-6" d="M206.89,163.78h-.79c-3.89.12-5.71,1.08-5.71,3.22a2.33,2.33,0,0,0,2.62,2.42,3.77,3.77,0,0,0,3.88-3.77Zm-.67-2.65h.63c0-.2,0-.44,0-.64-.08-2.3-1.11-3.56-3.29-3.56a3.78,3.78,0,0,0-3.84,2.81c-.48.08-3.77.36-3.77-2.3a3.42,3.42,0,0,1,1.19-2.58c1.27-1.27,3.61-2.1,6.7-2.1,6,0,8.41,3.05,8.41,8.17v11.26c0,.32-1,.72-2.07.72a2.57,2.57,0,0,1-2.65-1.75,6.46,6.46,0,0,1-.36-1.7,6.31,6.31,0,0,1-5.95,3.52c-3.65,0-6-2.18-6-5.51,0-4.24,3.65-6.26,11-6.34"/><path class="cls-6" d="M216.09,170.17V145.74c0-.2,1-.67,2.1-.67,1.59,0,3.29,1,3.29,4.24v20.86c0,1.86-.87,2.58-2.34,2.58h-.59c-1.51,0-2.46-.68-2.46-2.58"/></svg>