<svg xmlns:dc="http://purl.org/dc/elements/1.1/" xmlns:cc="http://creativecommons.org/ns#" xmlns:rdf="http://www.w3.org/1999/02/22-rdf-syntax-ns#" xmlns:svg="http://www.w3.org/2000/svg" xmlns="http://www.w3.org/2000/svg" xmlns:sodipodi="http://sodipodi.sourceforge.net/DTD/sodipodi-0.dtd" xmlns:inkscape="http://www.inkscape.org/namespaces/inkscape" viewBox="0 0 8.4666665 10.583333625" version="1.1" x="0px" y="0px"><g transform="translate(0,-288.53332)"><path d="m 4.8055589,292.70673 c -0.1023522,-0.0277 -0.2326321,-0.007 -0.3274921,0.0572 l -1.1006167,0.74408 0.1774006,0.20155 1.0719223,-0.72654 c 0.067123,-0.0455 0.1614752,-0.0246 0.2153162,0.046 0.014037,0.0185 0.024929,0.0389 0.034659,0.0595 l 0.2525204,-0.0547 c 0,0 -0.016444,-0.0899 -0.07332,-0.1607 -0.058666,-0.0742 -0.1262615,-0.1327 -0.2503896,-0.16633 z" style="color:#000000;font-style:normal;font-variant:normal;font-weight:normal;font-stretch:normal;font-size:medium;line-height:normal;font-family:sans-serif;font-variant-ligatures:normal;font-variant-position:normal;font-variant-caps:normal;font-variant-numeric:normal;font-variant-alternates:normal;font-feature-settings:normal;text-indent:0;text-align:start;text-decoration:none;text-decoration-line:none;text-decoration-style:solid;text-decoration-color:#000000;letter-spacing:normal;word-spacing:normal;text-transform:none;writing-mode:lr-tb;direction:ltr;text-orientation:mixed;dominant-baseline:auto;baseline-shift:baseline;text-anchor:start;white-space:normal;shape-padding:0;clip-rule:nonzero;display:inline;overflow:visible;visibility:visible;opacity:1;isolation:auto;mix-blend-mode:normal;color-interpolation:sRGB;color-interpolation-filters:linearRGB;solid-color:#000000;solid-opacity:1;vector-effect:none;fill:#000000;fill-opacity:1;fill-rule:evenodd;stroke:none;stroke-width:0.26458329px;stroke-linecap:butt;stroke-linejoin:round;stroke-miterlimit:4;stroke-dasharray:none;stroke-dashoffset:0;stroke-opacity:1;color-rendering:auto;image-rendering:auto;shape-rendering:auto;text-rendering:auto;enable-background:accumulate"/><path d="m 7.0241453,293.01868 c -0.1025585,-0.0214 -0.2140842,-0.006 -0.3134173,0.0537 -0.3082622,0.18396 -1.6063396,0.92082 -1.6063396,0.92082 a 0.13238224,0.13248478 0 1 0 0.1306369,0.23047 c 0,0 1.289496,-0.7326 1.6109818,-0.92444 0.067693,-0.0404 0.1892786,-0.005 0.2204792,0.0398 0.034124,0.0485 0.036779,0.0925 0.024771,0.13953 -0.012002,0.0471 -0.046772,0.0912 -0.063511,0.10285 -0.6143273,0.42746 -1.8541806,1.27271 -1.8541806,1.27271 -0.3432934,0.23283 -0.8763518,0.48147 -1.4065128,0.54672 -0.5560054,0.0684 -1.1818882,-0.26264 -1.8567635,-0.31056 h -5.287e-4 c -0.2610515,-0.0185 -0.6353472,-0.01 -0.94903405,0.003 a 0.13219655,0.13229894 0 1 0 0.0103367,0.26404 c 0.30989855,-0.0127 0.68353065,-0.0198 0.92012025,-0.003 0.593572,0.042 1.2345105,0.39188 1.9078789,0.30901 0.5883613,-0.0724 1.1481207,-0.33574 1.5232068,-0.59012 0,0 1.2391845,-0.84491 1.856248,-1.27428 0.082654,-0.0575 0.1411745,-0.14571 0.1688431,-0.25426 0.027631,-0.1084 0.015994,-0.24295 -0.064542,-0.35756 -0.062396,-0.0886 -0.156127,-0.14716 -0.2586881,-0.16846 z" style="color:#000000;font-style:normal;font-variant:normal;font-weight:normal;font-stretch:normal;font-size:medium;line-height:normal;font-family:sans-serif;font-variant-ligatures:normal;font-variant-position:normal;font-variant-caps:normal;font-variant-numeric:normal;font-variant-alternates:normal;font-feature-settings:normal;text-indent:0;text-align:start;text-decoration:none;text-decoration-line:none;text-decoration-style:solid;text-decoration-color:#000000;letter-spacing:normal;word-spacing:normal;text-transform:none;writing-mode:lr-tb;direction:ltr;text-orientation:mixed;dominant-baseline:auto;baseline-shift:baseline;text-anchor:start;white-space:normal;shape-padding:0;clip-rule:nonzero;display:inline;overflow:visible;visibility:visible;opacity:1;isolation:auto;mix-blend-mode:normal;color-interpolation:sRGB;color-interpolation-filters:linearRGB;solid-color:#000000;solid-opacity:1;vector-effect:none;fill:#000000;fill-opacity:1;fill-rule:evenodd;stroke:none;stroke-width:0.26458329px;stroke-linecap:round;stroke-linejoin:round;stroke-miterlimit:4;stroke-dasharray:none;stroke-dashoffset:0;stroke-opacity:1;color-rendering:auto;image-rendering:auto;shape-rendering:auto;text-rendering:auto;enable-background:accumulate"/><path d="m 5.9976597,292.92307 -1.4602135,0.90327 0.1388956,0.22531 1.4602135,-0.90327 c 0.074602,-0.0462 0.1675054,-0.0286 0.219961,0.0429 1.772e-4,0 2.644e-4,0 5.288e-4,0 0.028417,0.0391 0.038346,0.0846 0.030979,0.12815 l 0.2607528,0.0439 c 0.018876,-0.11163 -0.00614,-0.23195 -0.078483,-0.33022 -0.062399,-0.0706 -0.1205168,-0.13953 -0.2654004,-0.16689 -0.1184336,-0.0238 -0.2030362,-0.003 -0.3072337,0.0568 z" style="color:#000000;font-style:normal;font-variant:normal;font-weight:normal;font-stretch:normal;font-size:medium;line-height:normal;font-family:sans-serif;font-variant-ligatures:normal;font-variant-position:normal;font-variant-caps:normal;font-variant-numeric:normal;font-variant-alternates:normal;font-feature-settings:normal;text-indent:0;text-align:start;text-decoration:none;text-decoration-line:none;text-decoration-style:solid;text-decoration-color:#000000;letter-spacing:normal;word-spacing:normal;text-transform:none;writing-mode:lr-tb;direction:ltr;text-orientation:mixed;dominant-baseline:auto;baseline-shift:baseline;text-anchor:start;white-space:normal;shape-padding:0;clip-rule:nonzero;display:inline;overflow:visible;visibility:visible;opacity:1;isolation:auto;mix-blend-mode:normal;color-interpolation:sRGB;color-interpolation-filters:linearRGB;solid-color:#000000;solid-opacity:1;vector-effect:none;fill:#000000;fill-opacity:1;fill-rule:evenodd;stroke:none;stroke-width:0.26458329px;stroke-linecap:butt;stroke-linejoin:round;stroke-miterlimit:4;stroke-dasharray:none;stroke-dashoffset:0;stroke-opacity:1;color-rendering:auto;image-rendering:auto;shape-rendering:auto;text-rendering:auto;enable-background:accumulate"/><path d="m 5.6114358,292.71586 c -0.1037375,-0.0206 -0.2144543,-0.003 -0.3092879,0.06 l -1.3311285,0.88362 0.146126,0.22065 1.3306104,-0.88362 c 0.068892,-0.0457 0.164296,-0.0262 0.2168653,0.0455 1.772e-4,0 2.644e-4,0 5.288e-4,0 0.028383,0.039 0.038342,0.0846 0.030982,0.12816 l 0.2607501,0.0439 c 0.01885,-0.11146 -0.00684,-0.2315 -0.078998,-0.32967 -1.083e-4,-1.4e-4 1.059e-4,0 0,0 -0.067974,-0.0791 -0.1501311,-0.15229 -0.2664472,-0.16845 z" style="color:#000000;font-style:normal;font-variant:normal;font-weight:normal;font-stretch:normal;font-size:medium;line-height:normal;font-family:sans-serif;font-variant-ligatures:normal;font-variant-position:normal;font-variant-caps:normal;font-variant-numeric:normal;font-variant-alternates:normal;font-feature-settings:normal;text-indent:0;text-align:start;text-decoration:none;text-decoration-line:none;text-decoration-style:solid;text-decoration-color:#000000;letter-spacing:normal;word-spacing:normal;text-transform:none;writing-mode:lr-tb;direction:ltr;text-orientation:mixed;dominant-baseline:auto;baseline-shift:baseline;text-anchor:start;white-space:normal;shape-padding:0;clip-rule:nonzero;display:inline;overflow:visible;visibility:visible;opacity:1;isolation:auto;mix-blend-mode:normal;color-interpolation:sRGB;color-interpolation-filters:linearRGB;solid-color:#000000;solid-opacity:1;vector-effect:none;fill:#000000;fill-opacity:1;fill-rule:evenodd;stroke:none;stroke-width:0.26458329px;stroke-linecap:butt;stroke-linejoin:round;stroke-miterlimit:4;stroke-dasharray:none;stroke-dashoffset:0;stroke-opacity:1;color-rendering:auto;image-rendering:auto;shape-rendering:auto;text-rendering:auto;enable-background:accumulate"/><path d="m 1.9985981,293.23311 a 0.13219655,0.13229894 0 0 0 -0.012399,0.005 c 0,0 -0.7701397,0.33128 -1.15350573,0.43459 -0.0449846,0.0122 -0.16294241,0.0299 -0.2607528,0.0419 -0.0978078,0.0119 -0.1802029,0.0201 -0.1802029,0.0201 a 0.13219655,0.13229894 0 1 0 0.0247712,0.26302 c 0,0 0.0855992,-0.008 0.18743333,-0.0201 0.10183404,-0.0124 0.21565183,-0.0275 0.29741252,-0.0496 0.42761568,-0.11524 1.16227488,-0.43609 1.17777468,-0.44287 0.1755817,-0.056 0.3663144,-0.0503 0.5421579,0.0135 l 0.6851829,0.24856 a 0.13219655,0.13229894 0 0 0 0.020647,0.006 l 1.1029033,0.20877 c 0.093795,0.0177 0.1326011,0.0456 0.1605844,0.0801 0.026357,0.0325 0.044186,0.0842 0.058345,0.15141 0.00302,0.0512 -0.00705,0.0835 -0.034595,0.11163 -0.028351,0.029 -0.085417,0.0584 -0.1838168,0.0687 l -1.4576333,-0.01 a 0.13219655,0.13229894 0 1 0 -0.00159,0.26458 l 1.4679569,0.01 a 0.13219655,0.13229894 0 0 0 0.01343,0 c 0.1446139,-0.014 0.2664208,-0.0618 0.3505952,-0.14779 0.084174,-0.086 0.1202074,-0.20711 0.1104973,-0.324 a 0.13219655,0.13229894 0 0 0 -0.00212,-0.0146 c -0.01803,-0.092 -0.0466,-0.19068 -0.1161759,-0.27645 -0.069579,-0.0858 -0.1781567,-0.147 -0.3165183,-0.17311 l -1.0925772,-0.20671 -0.675375,-0.24492 c -0.2285556,-0.0829 -0.4790695,-0.0916 -0.7125501,-0.0169 z" style="color:#000000;font-style:normal;font-variant:normal;font-weight:normal;font-stretch:normal;font-size:medium;line-height:normal;font-family:sans-serif;font-variant-ligatures:normal;font-variant-position:normal;font-variant-caps:normal;font-variant-numeric:normal;font-variant-alternates:normal;font-feature-settings:normal;text-indent:0;text-align:start;text-decoration:none;text-decoration-line:none;text-decoration-style:solid;text-decoration-color:#000000;letter-spacing:normal;word-spacing:normal;text-transform:none;writing-mode:lr-tb;direction:ltr;text-orientation:mixed;dominant-baseline:auto;baseline-shift:baseline;text-anchor:start;white-space:normal;shape-padding:0;clip-rule:nonzero;display:inline;overflow:visible;visibility:visible;opacity:1;isolation:auto;mix-blend-mode:normal;color-interpolation:sRGB;color-interpolation-filters:linearRGB;solid-color:#000000;solid-opacity:1;vector-effect:none;fill:#000000;fill-opacity:1;fill-rule:evenodd;stroke:none;stroke-width:0.26458329px;stroke-linecap:round;stroke-linejoin:round;stroke-miterlimit:4;stroke-dasharray:none;stroke-dashoffset:0;stroke-opacity:1;color-rendering:auto;image-rendering:auto;shape-rendering:auto;text-rendering:auto;enable-background:accumulate"/><path style="color:#000000;font-style:normal;font-variant:normal;font-weight:normal;font-stretch:normal;font-size:medium;line-height:normal;font-family:sans-serif;font-variant-ligatures:normal;font-variant-position:normal;font-variant-caps:normal;font-variant-numeric:normal;font-variant-alternates:normal;font-feature-settings:normal;text-indent:0;text-align:start;text-decoration:none;text-decoration-line:none;text-decoration-style:solid;text-decoration-color:#000000;letter-spacing:normal;word-spacing:normal;text-transform:none;writing-mode:lr-tb;direction:ltr;text-orientation:mixed;dominant-baseline:auto;baseline-shift:baseline;text-anchor:start;white-space:normal;shape-padding:0;clip-rule:nonzero;display:inline;overflow:visible;visibility:visible;opacity:1;isolation:auto;mix-blend-mode:normal;color-interpolation:sRGB;color-interpolation-filters:linearRGB;solid-color:#000000;solid-opacity:1;vector-effect:none;fill:#000000;fill-opacity:1;fill-rule:nonzero;stroke:none;stroke-width:0.26458332px;stroke-linecap:round;stroke-linejoin:round;stroke-miterlimit:4;stroke-dasharray:none;stroke-dashoffset:0;stroke-opacity:1;color-rendering:auto;image-rendering:auto;shape-rendering:auto;text-rendering:auto;enable-background:accumulate" d="m 5.6919857,296.20592 a 0.13219656,0.13229895 0 1 0 0,0.26457 h 0.1285694 a 0.13219656,0.13229895 0 1 0 0,-0.26457 z"/><path style="color:#000000;font-style:normal;font-variant:normal;font-weight:normal;font-stretch:normal;font-size:medium;line-height:normal;font-family:sans-serif;font-variant-ligatures:normal;font-variant-position:normal;font-variant-caps:normal;font-variant-numeric:normal;font-variant-alternates:normal;font-feature-settings:normal;text-indent:0;text-align:start;text-decoration:none;text-decoration-line:none;text-decoration-style:solid;text-decoration-color:#000000;letter-spacing:normal;word-spacing:normal;text-transform:none;writing-mode:lr-tb;direction:ltr;text-orientation:mixed;dominant-baseline:auto;baseline-shift:baseline;text-anchor:start;white-space:normal;shape-padding:0;clip-rule:nonzero;display:inline;overflow:visible;visibility:visible;opacity:1;isolation:auto;mix-blend-mode:normal;color-interpolation:sRGB;color-interpolation-filters:linearRGB;solid-color:#000000;solid-opacity:1;vector-effect:none;fill:#000000;fill-opacity:1;fill-rule:nonzero;stroke:none;stroke-width:0.26458332px;stroke-linecap:round;stroke-linejoin:round;stroke-miterlimit:4;stroke-dasharray:none;stroke-dashoffset:0;stroke-opacity:1;color-rendering:auto;image-rendering:auto;shape-rendering:auto;text-rendering:auto;enable-background:accumulate" d="m 5.031069,296.20592 a 0.13219656,0.13229895 0 1 0 0,0.26457 h 0.1285694 a 0.13219656,0.13229895 0 1 0 0,-0.26457 z"/><path style="color:#000000;font-style:normal;font-variant:normal;font-weight:normal;font-stretch:normal;font-size:medium;line-height:normal;font-family:sans-serif;font-variant-ligatures:normal;font-variant-position:normal;font-variant-caps:normal;font-variant-numeric:normal;font-variant-alternates:normal;font-feature-settings:normal;text-indent:0;text-align:start;text-decoration:none;text-decoration-line:none;text-decoration-style:solid;text-decoration-color:#000000;letter-spacing:normal;word-spacing:normal;text-transform:none;writing-mode:lr-tb;direction:ltr;text-orientation:mixed;dominant-baseline:auto;baseline-shift:baseline;text-anchor:start;white-space:normal;shape-padding:0;clip-rule:nonzero;display:inline;overflow:visible;visibility:visible;opacity:1;isolation:auto;mix-blend-mode:normal;color-interpolation:sRGB;color-interpolation-filters:linearRGB;solid-color:#000000;solid-opacity:1;vector-effect:none;fill:#000000;fill-opacity:1;fill-rule:nonzero;stroke:none;stroke-width:0.26458332px;stroke-linecap:round;stroke-linejoin:round;stroke-miterlimit:4;stroke-dasharray:none;stroke-dashoffset:0;stroke-opacity:1;color-rendering:auto;image-rendering:auto;shape-rendering:auto;text-rendering:auto;enable-background:accumulate" d="m 5.4240051,296.47049 a 0.13219656,0.13229895 0 0 0 -0.1301186,0.13435 v 0.12869 a 0.13219656,0.13229895 0 1 0 0.2643667,0 v -0.12869 a 0.13219656,0.13229895 0 0 0 -0.1342481,-0.13435 z"/><path style="color:#000000;font-style:normal;font-variant:normal;font-weight:normal;font-stretch:normal;font-size:medium;line-height:normal;font-family:sans-serif;font-variant-ligatures:normal;font-variant-position:normal;font-variant-caps:normal;font-variant-numeric:normal;font-variant-alternates:normal;font-feature-settings:normal;text-indent:0;text-align:start;text-decoration:none;text-decoration-line:none;text-decoration-style:solid;text-decoration-color:#000000;letter-spacing:normal;word-spacing:normal;text-transform:none;writing-mode:lr-tb;direction:ltr;text-orientation:mixed;dominant-baseline:auto;baseline-shift:baseline;text-anchor:start;white-space:normal;shape-padding:0;clip-rule:nonzero;display:inline;overflow:visible;visibility:visible;opacity:1;isolation:auto;mix-blend-mode:normal;color-interpolation:sRGB;color-interpolation-filters:linearRGB;solid-color:#000000;solid-opacity:1;vector-effect:none;fill:#000000;fill-opacity:1;fill-rule:nonzero;stroke:none;stroke-width:0.26458332px;stroke-linecap:round;stroke-linejoin:round;stroke-miterlimit:4;stroke-dasharray:none;stroke-dashoffset:0;stroke-opacity:1;color-rendering:auto;image-rendering:auto;shape-rendering:auto;text-rendering:auto;enable-background:accumulate" d="m 5.4240051,295.80906 a 0.13219656,0.13229895 0 0 0 -0.1301186,0.13435 v 0.12869 a 0.13219656,0.13229895 0 1 0 0.2643667,0 v -0.12869 a 0.13219656,0.13229895 0 0 0 -0.1342481,-0.13435 z"/><path style="display:inline;opacity:1;fill:#000000;fill-opacity:1;stroke:none;stroke-width:0.26458332;stroke-linecap:round;stroke-linejoin:round;stroke-miterlimit:4;stroke-dasharray:none;stroke-opacity:1" d="m 4.1040276,296.73536 a 0.13218334,0.13228572 0 0 1 -0.1321834,-0.13229 0.13218334,0.13228572 0 0 1 0.1321834,-0.13229 0.13218334,0.13228572 0 0 1 0.1321833,0.13229 0.13218334,0.13228572 0 0 1 -0.1321833,0.13229 z"/><path style="color:#000000;font-style:normal;font-variant:normal;font-weight:normal;font-stretch:normal;font-size:medium;line-height:normal;font-family:sans-serif;font-variant-ligatures:normal;font-variant-position:normal;font-variant-caps:normal;font-variant-numeric:normal;font-variant-alternates:normal;font-feature-settings:normal;text-indent:0;text-align:start;text-decoration:none;text-decoration-line:none;text-decoration-style:solid;text-decoration-color:#000000;letter-spacing:normal;word-spacing:normal;text-transform:none;writing-mode:lr-tb;direction:ltr;text-orientation:mixed;dominant-baseline:auto;baseline-shift:baseline;text-anchor:start;white-space:normal;shape-padding:0;clip-rule:nonzero;display:inline;overflow:visible;visibility:visible;opacity:1;isolation:auto;mix-blend-mode:normal;color-interpolation:sRGB;color-interpolation-filters:linearRGB;solid-color:#000000;solid-opacity:1;vector-effect:none;fill:#000000;fill-opacity:1;fill-rule:nonzero;stroke:none;stroke-width:0.26458332px;stroke-linecap:round;stroke-linejoin:round;stroke-miterlimit:4;stroke-dasharray:none;stroke-dashoffset:0;stroke-opacity:1;color-rendering:auto;image-rendering:auto;shape-rendering:auto;text-rendering:auto;enable-background:accumulate" d="m 7.6747358,295.1461 a 0.13219656,0.13229895 0 1 0 0,0.26458 h 0.1285695 a 0.13219656,0.13229895 0 1 0 0,-0.26458 z"/><path style="color:#000000;font-style:normal;font-variant:normal;font-weight:normal;font-stretch:normal;font-size:medium;line-height:normal;font-family:sans-serif;font-variant-ligatures:normal;font-variant-position:normal;font-variant-caps:normal;font-variant-numeric:normal;font-variant-alternates:normal;font-feature-settings:normal;text-indent:0;text-align:start;text-decoration:none;text-decoration-line:none;text-decoration-style:solid;text-decoration-color:#000000;letter-spacing:normal;word-spacing:normal;text-transform:none;writing-mode:lr-tb;direction:ltr;text-orientation:mixed;dominant-baseline:auto;baseline-shift:baseline;text-anchor:start;white-space:normal;shape-padding:0;clip-rule:nonzero;display:inline;overflow:visible;visibility:visible;opacity:1;isolation:auto;mix-blend-mode:normal;color-interpolation:sRGB;color-interpolation-filters:linearRGB;solid-color:#000000;solid-opacity:1;vector-effect:none;fill:#000000;fill-opacity:1;fill-rule:nonzero;stroke:none;stroke-width:0.26458332px;stroke-linecap:round;stroke-linejoin:round;stroke-miterlimit:4;stroke-dasharray:none;stroke-dashoffset:0;stroke-opacity:1;color-rendering:auto;image-rendering:auto;shape-rendering:auto;text-rendering:auto;enable-background:accumulate" d="m 7.0138192,295.1461 a 0.13219656,0.13229895 0 1 0 0,0.26458 h 0.1285694 a 0.13219656,0.13229895 0 1 0 0,-0.26458 z"/><path style="color:#000000;font-style:normal;font-variant:normal;font-weight:normal;font-stretch:normal;font-size:medium;line-height:normal;font-family:sans-serif;font-variant-ligatures:normal;font-variant-position:normal;font-variant-caps:normal;font-variant-numeric:normal;font-variant-alternates:normal;font-feature-settings:normal;text-indent:0;text-align:start;text-decoration:none;text-decoration-line:none;text-decoration-style:solid;text-decoration-color:#000000;letter-spacing:normal;word-spacing:normal;text-transform:none;writing-mode:lr-tb;direction:ltr;text-orientation:mixed;dominant-baseline:auto;baseline-shift:baseline;text-anchor:start;white-space:normal;shape-padding:0;clip-rule:nonzero;display:inline;overflow:visible;visibility:visible;opacity:1;isolation:auto;mix-blend-mode:normal;color-interpolation:sRGB;color-interpolation-filters:linearRGB;solid-color:#000000;solid-opacity:1;vector-effect:none;fill:#000000;fill-opacity:1;fill-rule:nonzero;stroke:none;stroke-width:0.26458332px;stroke-linecap:round;stroke-linejoin:round;stroke-miterlimit:4;stroke-dasharray:none;stroke-dashoffset:0;stroke-opacity:1;color-rendering:auto;image-rendering:auto;shape-rendering:auto;text-rendering:auto;enable-background:accumulate" d="m 7.4067552,295.41068 a 0.13219656,0.13229895 0 0 0 -0.1301186,0.13434 v 0.12866 a 0.13219656,0.13229895 0 1 0 0.2643667,0 v -0.12866 a 0.13219656,0.13229895 0 0 0 -0.1342481,-0.13434 z"/><path style="color:#000000;font-style:normal;font-variant:normal;font-weight:normal;font-stretch:normal;font-size:medium;line-height:normal;font-family:sans-serif;font-variant-ligatures:normal;font-variant-position:normal;font-variant-caps:normal;font-variant-numeric:normal;font-variant-alternates:normal;font-feature-settings:normal;text-indent:0;text-align:start;text-decoration:none;text-decoration-line:none;text-decoration-style:solid;text-decoration-color:#000000;letter-spacing:normal;word-spacing:normal;text-transform:none;writing-mode:lr-tb;direction:ltr;text-orientation:mixed;dominant-baseline:auto;baseline-shift:baseline;text-anchor:start;white-space:normal;shape-padding:0;clip-rule:nonzero;display:inline;overflow:visible;visibility:visible;opacity:1;isolation:auto;mix-blend-mode:normal;color-interpolation:sRGB;color-interpolation-filters:linearRGB;solid-color:#000000;solid-opacity:1;vector-effect:none;fill:#000000;fill-opacity:1;fill-rule:nonzero;stroke:none;stroke-width:0.26458332px;stroke-linecap:round;stroke-linejoin:round;stroke-miterlimit:4;stroke-dasharray:none;stroke-dashoffset:0;stroke-opacity:1;color-rendering:auto;image-rendering:auto;shape-rendering:auto;text-rendering:auto;enable-background:accumulate" d="m 7.4067552,294.74925 a 0.13219656,0.13229895 0 0 0 -0.1301186,0.13434 v 0.12866 a 0.13219656,0.13229895 0 1 0 0.2643667,0 v -0.12866 a 0.13219656,0.13229895 0 0 0 -0.1342481,-0.13434 z"/><path style="display:inline;opacity:1;fill:#000000;fill-opacity:1;stroke:none;stroke-width:0.26458332;stroke-linecap:round;stroke-linejoin:round;stroke-miterlimit:4;stroke-dasharray:none;stroke-opacity:1" d="m 6.4833277,295.94164 a 0.13218334,0.13228572 0 0 1 -0.1321833,-0.13228 0.13218334,0.13228572 0 0 1 0.1321833,-0.1323 0.13218334,0.13228572 0 0 1 0.1321834,0.1323 0.13218334,0.13228572 0 0 1 -0.1321834,0.13228 z"/><path style="display:inline;opacity:1;fill:#000000;fill-opacity:1;stroke:none;stroke-width:0.26458332;stroke-linecap:round;stroke-linejoin:round;stroke-miterlimit:4;stroke-dasharray:none;stroke-opacity:1" d="m 3.4431108,292.96522 a 0.13218334,0.13228572 0 0 1 -0.1321833,-0.1323 0.13218334,0.13228572 0 0 1 0.1321833,-0.13228 0.13218334,0.13228572 0 0 1 0.1321834,0.13228 0.13218334,0.13228572 0 0 1 -0.1321834,0.1323 z"/><path style="color:#000000;font-style:normal;font-variant:normal;font-weight:normal;font-stretch:normal;font-size:medium;line-height:normal;font-family:sans-serif;font-variant-ligatures:normal;font-variant-position:normal;font-variant-caps:normal;font-variant-numeric:normal;font-variant-alternates:normal;font-feature-settings:normal;text-indent:0;text-align:start;text-decoration:none;text-decoration-line:none;text-decoration-style:solid;text-decoration-color:#000000;letter-spacing:normal;word-spacing:normal;text-transform:none;writing-mode:lr-tb;direction:ltr;text-orientation:mixed;dominant-baseline:auto;baseline-shift:baseline;text-anchor:start;white-space:normal;shape-padding:0;clip-rule:nonzero;display:inline;overflow:visible;visibility:visible;opacity:1;isolation:auto;mix-blend-mode:normal;color-interpolation:sRGB;color-interpolation-filters:linearRGB;solid-color:#000000;solid-opacity:1;vector-effect:none;fill:#000000;fill-opacity:1;fill-rule:nonzero;stroke:none;stroke-width:0.26458332px;stroke-linecap:round;stroke-linejoin:round;stroke-miterlimit:4;stroke-dasharray:none;stroke-dashoffset:0;stroke-opacity:1;color-rendering:auto;image-rendering:auto;shape-rendering:auto;text-rendering:auto;enable-background:accumulate" d="m 0.93338545,289.06249 a 0.13219656,0.13229895 0 1 0 0,0.26457 H 1.0619548 a 0.13219656,0.13229895 0 1 0 0,-0.26457 z"/><path style="color:#000000;font-style:normal;font-variant:normal;font-weight:normal;font-stretch:normal;font-size:medium;line-height:normal;font-family:sans-serif;font-variant-ligatures:normal;font-variant-position:normal;font-variant-caps:normal;font-variant-numeric:normal;font-variant-alternates:normal;font-feature-settings:normal;text-indent:0;text-align:start;text-decoration:none;text-decoration-line:none;text-decoration-style:solid;text-decoration-color:#000000;letter-spacing:normal;word-spacing:normal;text-transform:none;writing-mode:lr-tb;direction:ltr;text-orientation:mixed;dominant-baseline:auto;baseline-shift:baseline;text-anchor:start;white-space:normal;shape-padding:0;clip-rule:nonzero;display:inline;overflow:visible;visibility:visible;opacity:1;isolation:auto;mix-blend-mode:normal;color-interpolation:sRGB;color-interpolation-filters:linearRGB;solid-color:#000000;solid-opacity:1;vector-effect:none;fill:#000000;fill-opacity:1;fill-rule:nonzero;stroke:none;stroke-width:0.26458332px;stroke-linecap:round;stroke-linejoin:round;stroke-miterlimit:4;stroke-dasharray:none;stroke-dashoffset:0;stroke-opacity:1;color-rendering:auto;image-rendering:auto;shape-rendering:auto;text-rendering:auto;enable-background:accumulate" d="m 1.5943021,289.06249 a 0.13219656,0.13229895 0 1 0 0,0.26457 h 0.1285694 a 0.13219656,0.13229895 0 1 0 0,-0.26457 z"/><path style="color:#000000;font-style:normal;font-variant:normal;font-weight:normal;font-stretch:normal;font-size:medium;line-height:normal;font-family:sans-serif;font-variant-ligatures:normal;font-variant-position:normal;font-variant-caps:normal;font-variant-numeric:normal;font-variant-alternates:normal;font-feature-settings:normal;text-indent:0;text-align:start;text-decoration:none;text-decoration-line:none;text-decoration-style:solid;text-decoration-color:#000000;letter-spacing:normal;word-spacing:normal;text-transform:none;writing-mode:lr-tb;direction:ltr;text-orientation:mixed;dominant-baseline:auto;baseline-shift:baseline;text-anchor:start;white-space:normal;shape-padding:0;clip-rule:nonzero;display:inline;overflow:visible;visibility:visible;opacity:1;isolation:auto;mix-blend-mode:normal;color-interpolation:sRGB;color-interpolation-filters:linearRGB;solid-color:#000000;solid-opacity:1;vector-effect:none;fill:#000000;fill-opacity:1;fill-rule:nonzero;stroke:none;stroke-width:0.26458332px;stroke-linecap:round;stroke-linejoin:round;stroke-miterlimit:4;stroke-dasharray:none;stroke-dashoffset:0;stroke-opacity:1;color-rendering:auto;image-rendering:auto;shape-rendering:auto;text-rendering:auto;enable-background:accumulate" d="m 1.3263215,289.32706 a 0.13219656,0.13229895 0 0 0 -0.1301186,0.13435 v 0.12869 a 0.13219656,0.13229895 0 1 0 0.2643667,0 v -0.12869 a 0.13219656,0.13229895 0 0 0 -0.1342481,-0.13435 z"/><path style="color:#000000;font-style:normal;font-variant:normal;font-weight:normal;font-stretch:normal;font-size:medium;line-height:normal;font-family:sans-serif;font-variant-ligatures:normal;font-variant-position:normal;font-variant-caps:normal;font-variant-numeric:normal;font-variant-alternates:normal;font-feature-settings:normal;text-indent:0;text-align:start;text-decoration:none;text-decoration-line:none;text-decoration-style:solid;text-decoration-color:#000000;letter-spacing:normal;word-spacing:normal;text-transform:none;writing-mode:lr-tb;direction:ltr;text-orientation:mixed;dominant-baseline:auto;baseline-shift:baseline;text-anchor:start;white-space:normal;shape-padding:0;clip-rule:nonzero;display:inline;overflow:visible;visibility:visible;opacity:1;isolation:auto;mix-blend-mode:normal;color-interpolation:sRGB;color-interpolation-filters:linearRGB;solid-color:#000000;solid-opacity:1;vector-effect:none;fill:#000000;fill-opacity:1;fill-rule:nonzero;stroke:none;stroke-width:0.26458332px;stroke-linecap:round;stroke-linejoin:round;stroke-miterlimit:4;stroke-dasharray:none;stroke-dashoffset:0;stroke-opacity:1;color-rendering:auto;image-rendering:auto;shape-rendering:auto;text-rendering:auto;enable-background:accumulate" d="m 1.3263215,288.66563 a 0.13219656,0.13229895 0 0 0 -0.1301186,0.13435 v 0.12869 a 0.13219656,0.13229895 0 1 0 0.2643667,0 v -0.12869 a 0.13219656,0.13229895 0 0 0 -0.1342481,-0.13435 z"/><path style="display:inline;opacity:1;fill:#000000;fill-opacity:1;stroke:none;stroke-width:0.26458332;stroke-linecap:round;stroke-linejoin:round;stroke-miterlimit:4;stroke-dasharray:none;stroke-opacity:1" d="m 2.3856441,289.06278 a 0.13218334,0.13228572 0 0 0 0.1321834,-0.13228 0.13218334,0.13228572 0 0 0 -0.1321834,-0.13229 0.13218334,0.13228572 0 0 0 -0.1321833,0.13229 0.13218334,0.13228572 0 0 0 0.1321833,0.13228 z"/><path style="display:inline;opacity:1;fill:#000000;fill-opacity:1;stroke:none;stroke-width:0.26458332;stroke-linecap:round;stroke-linejoin:round;stroke-miterlimit:4;stroke-dasharray:none;stroke-opacity:1" d="m 4.7649443,292.36992 a 0.13218334,0.13228572 0 0 0 0.1321834,-0.13228 0.13218334,0.13228572 0 0 0 -0.1321834,-0.13229 0.13218334,0.13228572 0 0 0 -0.1321834,0.13229 0.13218334,0.13228572 0 0 0 0.1321834,0.13228 z"/><path style="display:inline;opacity:1;fill:#000000;fill-opacity:1;stroke:none;stroke-width:0.26458332;stroke-linecap:round;stroke-linejoin:round;stroke-miterlimit:4;stroke-dasharray:none;stroke-opacity:1" d="m 2.9143775,289.45964 a 0.13218334,0.13228572 0 0 0 0.1321833,-0.13229 0.13218334,0.13228572 0 0 0 -0.1321833,-0.13229 0.13218334,0.13228572 0 0 0 -0.1321834,0.13229 0.13218334,0.13228572 0 0 0 0.1321834,0.13229 z"/><path style="color:#000000;font-style:normal;font-variant:normal;font-weight:normal;font-stretch:normal;font-size:medium;line-height:normal;font-family:sans-serif;font-variant-ligatures:normal;font-variant-position:normal;font-variant-caps:normal;font-variant-numeric:normal;font-variant-alternates:normal;font-feature-settings:normal;text-indent:0;text-align:start;text-decoration:none;text-decoration-line:none;text-decoration-style:solid;text-decoration-color:#000000;letter-spacing:normal;word-spacing:normal;text-transform:none;writing-mode:lr-tb;direction:ltr;text-orientation:mixed;dominant-baseline:auto;baseline-shift:baseline;text-anchor:start;white-space:normal;shape-padding:0;clip-rule:nonzero;display:inline;overflow:visible;visibility:visible;opacity:1;isolation:auto;mix-blend-mode:normal;color-interpolation:sRGB;color-interpolation-filters:linearRGB;solid-color:#000000;solid-opacity:1;vector-effect:none;fill:#000000;fill-opacity:1;fill-rule:evenodd;stroke:none;stroke-width:0.26458329px;stroke-linecap:butt;stroke-linejoin:round;stroke-miterlimit:4;stroke-dasharray:none;stroke-dashoffset:0;stroke-opacity:1;color-rendering:auto;image-rendering:auto;shape-rendering:auto;text-rendering:auto;enable-background:accumulate" d="m 3.6609887,292.20616 c 0.1023522,0.0277 0.232632,0.007 0.3274921,-0.0572 l 1.1006166,-0.74407 -0.1774006,-0.20156 -1.0719222,0.72654 c -0.067123,0.0455 -0.1614752,0.0246 -0.2153161,-0.046 -0.014038,-0.0185 -0.02493,-0.0389 -0.034659,-0.0595 l -0.2525205,0.0547 c 0,0 0.016444,0.0899 0.07332,0.16071 0.058666,0.0742 0.1262615,0.13271 0.2503896,0.16634 z"/><path style="color:#000000;font-style:normal;font-variant:normal;font-weight:normal;font-stretch:normal;font-size:medium;line-height:normal;font-family:sans-serif;font-variant-ligatures:normal;font-variant-position:normal;font-variant-caps:normal;font-variant-numeric:normal;font-variant-alternates:normal;font-feature-settings:normal;text-indent:0;text-align:start;text-decoration:none;text-decoration-line:none;text-decoration-style:solid;text-decoration-color:#000000;letter-spacing:normal;word-spacing:normal;text-transform:none;writing-mode:lr-tb;direction:ltr;text-orientation:mixed;dominant-baseline:auto;baseline-shift:baseline;text-anchor:start;white-space:normal;shape-padding:0;clip-rule:nonzero;display:inline;overflow:visible;visibility:visible;opacity:1;isolation:auto;mix-blend-mode:normal;color-interpolation:sRGB;color-interpolation-filters:linearRGB;solid-color:#000000;solid-opacity:1;vector-effect:none;fill:#000000;fill-opacity:1;fill-rule:evenodd;stroke:none;stroke-width:0.26458329px;stroke-linecap:round;stroke-linejoin:round;stroke-miterlimit:4;stroke-dasharray:none;stroke-dashoffset:0;stroke-opacity:1;color-rendering:auto;image-rendering:auto;shape-rendering:auto;text-rendering:auto;enable-background:accumulate" d="m 1.4424023,291.8942 c 0.1025584,0.0214 0.2140841,0.006 0.3134172,-0.0537 0.3082622,-0.18397 1.6063397,-0.92082 1.6063397,-0.92082 a 0.1323821,0.13248464 0 1 0 -0.1306369,-0.23046 c 0,0 -1.2894961,0.7326 -1.6109818,0.92444 -0.067693,0.0404 -0.1892786,0.005 -0.2204791,-0.0398 -0.034125,-0.0484 -0.036779,-0.0925 -0.024772,-0.13954 0.012002,-0.047 0.046772,-0.0912 0.063512,-0.10283 0.6143274,-0.42747 1.8541807,-1.27272 1.8541807,-1.27272 0.3432933,-0.23282 0.8763518,-0.48147 1.4065127,-0.54672 0.5560055,-0.0684 1.1818883,0.26265 1.8567635,0.31056 h 5.288e-4 c 0.2610516,0.0185 0.6353471,0.01 0.9490341,-0.003 a 0.13219655,0.13229894 0 1 0 -0.010337,-0.26405 c -0.3098985,0.0127 -0.6835306,0.0199 -0.9201202,0.003 -0.593572,-0.042 -1.2345106,-0.39188 -1.907879,-0.30903 -0.5883612,0.0724 -1.1481206,0.33575 -1.5232067,0.59014 0,0 -1.2391845,0.8449 -1.856248,1.27428 -0.082654,0.0575 -0.1411745,0.14569 -0.1688432,0.25425 -0.027631,0.10839 -0.015994,0.24296 0.064542,0.35757 0.062396,0.0886 0.156127,0.14715 0.2586881,0.16845 z"/><path style="color:#000000;font-style:normal;font-variant:normal;font-weight:normal;font-stretch:normal;font-size:medium;line-height:normal;font-family:sans-serif;font-variant-ligatures:normal;font-variant-position:normal;font-variant-caps:normal;font-variant-numeric:normal;font-variant-alternates:normal;font-feature-settings:normal;text-indent:0;text-align:start;text-decoration:none;text-decoration-line:none;text-decoration-style:solid;text-decoration-color:#000000;letter-spacing:normal;word-spacing:normal;text-transform:none;writing-mode:lr-tb;direction:ltr;text-orientation:mixed;dominant-baseline:auto;baseline-shift:baseline;text-anchor:start;white-space:normal;shape-padding:0;clip-rule:nonzero;display:inline;overflow:visible;visibility:visible;opacity:1;isolation:auto;mix-blend-mode:normal;color-interpolation:sRGB;color-interpolation-filters:linearRGB;solid-color:#000000;solid-opacity:1;vector-effect:none;fill:#000000;fill-opacity:1;fill-rule:evenodd;stroke:none;stroke-width:0.26458329px;stroke-linecap:butt;stroke-linejoin:round;stroke-miterlimit:4;stroke-dasharray:none;stroke-dashoffset:0;stroke-opacity:1;color-rendering:auto;image-rendering:auto;shape-rendering:auto;text-rendering:auto;enable-background:accumulate" d="m 2.4688879,291.98982 1.4602135,-0.90328 -0.1388956,-0.22531 -1.4602135,0.90328 c -0.074602,0.0462 -0.1675054,0.0286 -0.219961,-0.0429 -1.772e-4,0 -2.644e-4,0 -5.287e-4,0 -0.028417,-0.0391 -0.038347,-0.0846 -0.030979,-0.12816 l -0.2607528,-0.0439 c -0.018876,0.11162 0.00613,0.23195 0.078483,0.33021 0.062399,0.0706 0.1205169,0.13954 0.2654004,0.1669 0.1184336,0.0238 0.2030362,0.003 0.3072337,-0.0568 z"/><path style="color:#000000;font-style:normal;font-variant:normal;font-weight:normal;font-stretch:normal;font-size:medium;line-height:normal;font-family:sans-serif;font-variant-ligatures:normal;font-variant-position:normal;font-variant-caps:normal;font-variant-numeric:normal;font-variant-alternates:normal;font-feature-settings:normal;text-indent:0;text-align:start;text-decoration:none;text-decoration-line:none;text-decoration-style:solid;text-decoration-color:#000000;letter-spacing:normal;word-spacing:normal;text-transform:none;writing-mode:lr-tb;direction:ltr;text-orientation:mixed;dominant-baseline:auto;baseline-shift:baseline;text-anchor:start;white-space:normal;shape-padding:0;clip-rule:nonzero;display:inline;overflow:visible;visibility:visible;opacity:1;isolation:auto;mix-blend-mode:normal;color-interpolation:sRGB;color-interpolation-filters:linearRGB;solid-color:#000000;solid-opacity:1;vector-effect:none;fill:#000000;fill-opacity:1;fill-rule:evenodd;stroke:none;stroke-width:0.26458329px;stroke-linecap:butt;stroke-linejoin:round;stroke-miterlimit:4;stroke-dasharray:none;stroke-dashoffset:0;stroke-opacity:1;color-rendering:auto;image-rendering:auto;shape-rendering:auto;text-rendering:auto;enable-background:accumulate" d="m 2.8551118,292.19703 c 0.1037375,0.0206 0.2144542,0.003 0.3092878,-0.06 l 1.3311286,-0.88361 -0.1461261,-0.22066 -1.3306104,0.88362 c -0.068892,0.0457 -0.1642959,0.0262 -0.2168652,-0.0455 -1.772e-4,0 -2.644e-4,0 -5.287e-4,0 -0.028383,-0.039 -0.038342,-0.0846 -0.030982,-0.12815 l -0.2607501,-0.0439 c -0.01885,0.11147 0.00684,0.2315 0.078998,0.32969 1.084e-4,1.3e-4 -1.057e-4,0 0,0 0.067974,0.0791 0.1501312,0.15228 0.2664473,0.16845 z"/><path style="color:#000000;font-style:normal;font-variant:normal;font-weight:normal;font-stretch:normal;font-size:medium;line-height:normal;font-family:sans-serif;font-variant-ligatures:normal;font-variant-position:normal;font-variant-caps:normal;font-variant-numeric:normal;font-variant-alternates:normal;font-feature-settings:normal;text-indent:0;text-align:start;text-decoration:none;text-decoration-line:none;text-decoration-style:solid;text-decoration-color:#000000;letter-spacing:normal;word-spacing:normal;text-transform:none;writing-mode:lr-tb;direction:ltr;text-orientation:mixed;dominant-baseline:auto;baseline-shift:baseline;text-anchor:start;white-space:normal;shape-padding:0;clip-rule:nonzero;display:inline;overflow:visible;visibility:visible;opacity:1;isolation:auto;mix-blend-mode:normal;color-interpolation:sRGB;color-interpolation-filters:linearRGB;solid-color:#000000;solid-opacity:1;vector-effect:none;fill:#000000;fill-opacity:1;fill-rule:evenodd;stroke:none;stroke-width:0.26458329px;stroke-linecap:round;stroke-linejoin:round;stroke-miterlimit:4;stroke-dasharray:none;stroke-dashoffset:0;stroke-opacity:1;color-rendering:auto;image-rendering:auto;shape-rendering:auto;text-rendering:auto;enable-background:accumulate" d="m 6.4679495,291.67976 a 0.13219655,0.13229894 0 0 0 0.012399,-0.005 c 0,0 0.7701398,-0.33127 1.1535058,-0.43459 0.044984,-0.0122 0.1629425,-0.0299 0.2607529,-0.0419 0.097808,-0.0119 0.1802029,-0.0201 0.1802029,-0.0201 a 0.13219655,0.13229894 0 1 0 -0.024772,-0.26301 c 0,0 -0.085599,0.008 -0.1874333,0.0201 -0.1018341,0.0124 -0.2156519,0.0276 -0.2974125,0.0496 -0.4276158,0.11526 -1.1622749,0.4361 -1.1777747,0.44287 -0.1755818,0.056 -0.3663144,0.0504 -0.542158,-0.0135 l -0.6851829,-0.24857 a 0.13219655,0.13229894 0 0 0 -0.020647,-0.006 l -1.1029035,-0.20877 c -0.093795,-0.0177 -0.132601,-0.0456 -0.1605842,-0.0801 -0.026357,-0.0325 -0.044187,-0.0842 -0.058346,-0.15141 -0.00302,-0.0511 0.00705,-0.0835 0.034595,-0.11163 0.028351,-0.029 0.085417,-0.0584 0.1838167,-0.0687 l 1.4576333,0.01 a 0.13219655,0.13229894 0 1 0 0.00159,-0.26456 l -1.4679568,-0.01 a 0.13219655,0.13229894 0 0 0 -0.01343,0 c -0.1446139,0.014 -0.2664208,0.0617 -0.3505952,0.14778 -0.084174,0.0861 -0.1202075,0.20711 -0.1104973,0.324 a 0.13219655,0.13229894 0 0 0 0.00212,0.0145 c 0.01803,0.092 0.0466,0.19069 0.116176,0.27646 0.069579,0.0858 0.1781567,0.147 0.3165182,0.1731 l 1.0925774,0.20671 0.6753749,0.24492 c 0.2285555,0.0829 0.4790694,0.0916 0.7125501,0.0169 z"/></g><text x="0" y="23.4666669" fill="#000000" font-size="5px" font-weight="bold" font-family="'Helvetica Neue', Helvetica, Arial-Unicode, Arial, Sans-serif">Created by P Thanga Vignesh</text><text x="0" y="28.4666669" fill="#000000" font-size="5px" font-weight="bold" font-family="'Helvetica Neue', Helvetica, Arial-Unicode, Arial, Sans-serif">from the Noun Project</text></svg>