<svg width="24" height="24" viewBox="0 0 24 24" fill="none" xmlns="http://www.w3.org/2000/svg">
<path  fill-rule="evenodd" clip-rule="evenodd" d="M4.05753 5.28399C5.35753 5.59699 18.1495 9.04799 23.2575 10.412C23.7045 10.543 23.9605 10.896 23.9955 11.289C24.0045 11.389 23.9955 11.487 23.9765 11.587C23.1135 15.166 22.0705 18.702 21.1165 22.26C20.9835 22.71 20.6265 22.962 20.2385 22.996C20.1375 23.006 20.0405 22.998 19.9405 22.979C13.5015 21.428 7.14053 19.561 0.741531 17.851C0.285531 17.717 0.0375307 17.359 0.00353074 16.974C-0.00546926 16.874 0.00353075 16.775 0.0215307 16.677C0.885531 13.096 1.92853 9.55999 2.88153 6.00299C3.03853 5.47799 3.51253 5.18299 4.05753 5.28399ZM2.22553 16.177L19.4415 20.778L21.7725 12.086C16.9875 10.807 4.55753 7.48699 4.55753 7.48699C3.77953 10.383 3.00253 13.281 2.22553 16.177ZM18.3735 19.656L18.6315 18.693L15.9145 17.976L15.6555 18.941L18.3735 19.656ZM13.3545 18.331L14.3205 18.593L14.7645 16.935L13.7995 16.673L13.3545 18.331ZM19.0625 17.003L19.3215 16.038L16.6035 15.321L16.3435 16.286L19.0625 17.003ZM14.0585 15.706L15.0245 15.968L15.5275 14.093L14.5605 13.832L14.0585 15.706ZM19.5075 15.272L19.7665 14.306L17.0475 13.59L16.7895 14.555L19.5075 15.272ZM19.9725 13.504L20.2315 12.539L17.5135 11.822L17.2545 12.788L19.9725 13.504ZM14.8195 12.866L15.7865 13.127L16.2305 11.469L15.2645 11.208L14.8195 12.866ZM7.17853 4.37099C11.4375 3.24599 15.7115 2.17099 19.9665 1.03399C20.1095 0.998994 20.1745 0.998994 20.2655 0.999994C20.6925 1.02799 21.0305 1.26999 21.1775 1.69099C21.8555 3.98799 22.4575 6.30499 23.0575 8.62199L20.8015 8.01799L19.5185 3.22399L11.2005 5.44699L7.17853 4.37099Z" fill="#f5f7ff"/>
<path d="M9.61224 9.8581L9.74855 12.4592L12.2644 13.1333L9.8328 14.0667L9.96912 16.6678L8.32996 14.6436L5.89833 15.577L7.31691 13.3926L5.67776 11.3684L8.19365 12.0425L9.61224 9.8581Z" fill="#f5f7ff"/>
</svg>
