<svg height='100px' width='100px'  fill="#625fab" xmlns="http://www.w3.org/2000/svg" xmlns:xlink="http://www.w3.org/1999/xlink" version="1.1" x="0px" y="0px" viewBox="0 0 128 128" style="enable-background:new 0 0 128 128;" xml:space="preserve"><g><path d="M122.2612305,27.7821655c-1.3205566-4.534668-4.3748779-8.3181152-6.0778809-10.1697998   c-3.9312744-4.274292-7.258667-5.9758301-9.357666-6.6506348c-0.3994141-0.1283569-0.814209-0.1934814-1.2327881-0.1934814   h-0.0001221c-1.0158691,0.000061-1.9893799,0.3807373-2.7410889,1.0720215l-8.0914307,7.4420166   c-2.5827637,2.3754883-5.5802002,4.1427002-8.9091797,5.2525024c-3.8677979,1.2895508-7.350708,3.3428955-10.3516846,6.1030273   l-11.3238525,10.414978c-0.2104492-0.3500977-0.4595947-0.6704712-0.7408447-0.963623l-0.1660156-1.9749756   c-0.1016846-1.2080688-0.8372803-2.2268677-1.8526611-2.7681274c0.838623-0.0953369,1.6931152-0.2144775,2.5710449-0.3742676   c3.0043945-0.5467529,5.0323486-3.3493652,4.6168213-6.3803101c-0.2543945-1.8562622-1.7988281-3.2324219-3.6721191-3.2720947   c-6.177002-0.1306763-13.5499268-3.3231812-13.6236572-3.3554077c-3.625-1.6797485-12.5304565-3.1725464-16.1891479-3.7355957   c-0.3064575-0.0471191-0.5903931-0.1837769-0.8209839-0.3952026L25.2321777,9.524353   c-0.7518921-0.6890869-1.7265015-1.0686035-2.7443848-1.0686035h-0.0001221c-0.4992065,0-0.9880981,0.0911255-1.453186,0.270813   c-4.4057007,1.7023926-7.9151001,5.0679321-9.6149292,6.9226074c-3.923645,4.2810669-5.3355103,7.741394-5.8289795,9.8903198   c-0.3243408,1.4125366,0.1408691,2.901062,1.2139893,3.8846436l8.1045532,7.4278564   c2.586853,2.3708496,4.6030884,5.2067871,5.9926758,8.4290771c1.6144409,3.7439575,3.9570923,7.0391235,6.9629517,9.7940063   l11.7885132,10.8041382c-0.5171509-0.133728-1.0476074-0.2227173-1.5952148-0.2227173   c-0.4950562,0-0.9814453,0.0595093-1.4528809,0.1693726c-0.0415649-0.0333862-0.0835571-0.0726318-0.125-0.1047974   c-0.553833-0.4298706-1.211853-0.6571045-1.9030151-0.6571045c-0.9049072,0-1.765564,0.3936768-2.3612671,1.0800781   c-0.5871582,0.6765137-0.8508911,1.5778809-0.7236938,2.4729004c0.1364136,0.9591064,0.4458618,1.9710693,0.9057007,3.0249023   c0.1130371,0.3786621,0.2907715,0.7408447,0.5200195,1.0817261c0.4586182,0.875,1.020874,1.7775879,1.6862183,2.7055664   c2.090332,3.8822632,3.7855225,8.977478,3.8064575,9.0409546c1.3514404,4.2476807,6.8255005,12.6791382,9.1159668,16.1060181   c0.2174072,0.3253174,0.3323364,0.7062378,0.3323364,1.1015015l-0.0001221,11.1505127   c0,1.5169678,0.8439331,2.8887329,2.2023926,3.5799561c4.888916,2.4872437,10.7347412,2.7557983,13.0211182,2.7557983   c6.9852295,0,10.9337158-1.7391968,12.6656494-2.7758789c1.1820068-0.7075195,1.9163818-2.0160522,1.9163818-3.414917v-9.6844482   c0-3.9493408,0.8198242-7.7788696,2.4367676-11.3822021c1.8496094-4.121582,2.7873535-8.5021362,2.7873535-13.0198364v-8.3059082   l9.5321045-8.7670288c-0.2414551,2.3954468-0.1386719,4.7463379,0.0305176,6.5283203   c0.2790527,2.9366455,2.7165527,5.1511841,5.6699219,5.1511841c0.09729,0,0.1955566-0.0024414,0.2938232-0.0074463   c1.8710938-0.0953979,3.3739014-1.5169067,3.572998-3.3799438c0.6567383-6.1433716,4.4659424-13.2173462,4.5042725-13.2880859   c1.9822998-3.4682617,4.2288818-12.2143555,5.1016846-15.8118896c0.0731201-0.3014526,0.2335205-0.5726318,0.4637451-0.7844849   l9.0511475-8.324585C122.2524414,30.8449097,122.6940918,29.2682495,122.2612305,27.7821655z M119.7547607,30.4246826   l-4.5489502,4.1837158c-0.8302002-2.0101318-1.7806396-3.8240967-2.7954102-5.4609375l5.8676758-5.3966675   c0.8651123,1.4562378,1.6022949,3.008728,2.0629883,4.5906372C120.55896,29.0895996,120.3283691,29.8971558,119.7547607,30.4246826   z M98.3129883,71.4882812h-0.0001221c-0.064209,0.0032959-0.128418,0.0048828-0.1918945,0.0048828   c-1.894043,0-3.4978027-1.4342041-3.678833-3.340332c-0.2408447-2.5352783-0.3243408-6.0401611,0.4909668-9.1116333   c0.1688232-0.6358643-0.3272705-1.1513062-0.8669434-1.1513672c-0.2037354,0-0.4136963,0.0734253-0.5964355,0.2415161   c-2.8032227,2.5782471-6.9055176,6.3513794-10.5812988,9.7320557c-0.3378906,0.310791-0.6704102,0.6166382-0.9997559,0.9194946   c-0.3397217,0.3125-0.6726074,0.6185913-1.0002441,0.9199829c-1.5927734,1.4649658-3.0316162,2.788269-4.1347656,3.8029175   c-0.5900879,0.5427246-1.3343506,0.8104858-2.076416,0.8104858c-0.8310547,0-1.6595459-0.3354492-2.2672119-0.9962769   l-0.0612793-0.0665283c-1.1503906-1.2508545-1.0690918-3.1975708,0.1818848-4.3480225l0.1170654-0.1077271l1.3717041-1.2615356   l6.8690186-6.317749l1.0002441-0.9199829l0.9997559-0.9194946l2.3244629-2.1379395   c0.3708496-0.3410645,0.3950195-0.9182129,0.0539551-1.2890625c-0.1799316-0.1955566-0.425415-0.2946777-0.6717529-0.2946777   c-0.2211914-0.000061-0.4429932,0.0799561-0.6184082,0.2418213l-1.0882568,1.0039062l-0.9997559,0.9222412l-1.0002441,0.9227295   l-6.8690186,6.3365479l-1.0476074,0.9664307l-0.0079346,0.0073242l-0.9995117,0.9219971l-3.0854492,2.8463135   c-0.5915527,0.5457764-1.3398438,0.8154297-2.0856934,0.8154297c-0.8308105,0-1.6589355-0.3342896-2.2657471-0.9940796   l-0.0997314-0.1085205c-0.4569092-0.4968262-0.7113037-1.1038208-0.7835693-1.7266235   c-0.0869141-0.7495117,0.09375-1.5222168,0.5515137-2.1560669c0.1196289-0.1655884,0.2575684-0.3217163,0.4138184-0.4653931   l0.3500977-0.3220215l0.1104736-0.1015625l1.2785645-1.1759644l1.8154297-1.6697388l1.2919922-1.1882935l0.9521484-0.8756714   l1.5561523-1.4313354l0.9995117-0.9193115l0.0461426-0.0424194l1.0093994-0.9284058l4.7602539-4.3782349l0.7750244-0.7128906   l0.2519531-0.2316284c0.1853027-0.1704712,0.2799072-0.401001,0.2861328-0.6343384   c0.0058594-0.2241821-0.069458-0.4510498-0.2332764-0.6291504c-0.1762695-0.1917114-0.4169922-0.2888794-0.6584473-0.2888794   c-0.2163086,0-0.4332275,0.0780029-0.6049805,0.2360229l-0.1048584,0.0963745l-0.9824219,0.9036865l-1.3659668,1.2562866   l-1.7115479,1.5740967l-1.3782959,1.2677002l-0.0891113,0.0819702l-0.7807617,0.7180786l-0.21875,0.2012329l-0.6376953,0.5865479   l-1.5625,1.4369507l-0.7609863,0.6999512l-0.769043,0.7072754l-2.5168457,2.3148804   c-0.2305908,0.2120361-0.4892578,0.3696899-0.7576904,0.4984131c-0.4199219,0.201355-0.8704834,0.3139038-1.324585,0.3139038   c-0.2258301,0-0.4504395-0.0296631-0.6715088-0.0789185c-0.1517334-0.0338135-0.2999268-0.0827637-0.4459229-0.1396484   c-0.4238281-0.164978-0.8197021-0.4182739-1.1483154-0.7755737l-0.0823975-0.0895386   c-0.1933594-0.2102661-0.3391113-0.4447021-0.4631348-0.6872559c-0.6138916-1.2001343-0.3956299-2.7037354,0.6450195-3.6608276   l1.494751-1.3747559l0.8394775-0.7721558l1.1566162-1.0637817l0.1740723-0.1600952l4.6131592-4.2429199l0.7387695-0.6795044   l0.7387695-0.6793823l0.7399902-0.6806641l0.9255371-0.8512573l0.8547363-0.7860718l1.2363281-1.137146   c0.3742676-0.3442383,0.3986816-0.9266357,0.0544434-1.3009033c-0.1815186-0.1973877-0.4293213-0.2974243-0.6778564-0.2974243   c-0.2227783,0-0.446167,0.0803223-0.6230469,0.243042l-0.8458252,0.7779541l-0.7421875,0.6826782l-0.7404785,0.6809082   l-1.5441895,1.4202271l-0.7385254,0.6793823l-0.7388916,0.6795044l-2.9019775,2.6690674   c-0.1629639,0.1499023-0.3395996,0.2741699-0.5228271,0.3823853c-0.4815674,0.2843018-1.0201416,0.4299316-1.5594482,0.4299316   c-0.1464844,0-0.2915039-0.0233765-0.4366455-0.0441284c-0.0266113-0.0037842-0.0535889-0.00354-0.0800781-0.0080566   c-0.6490479-0.1101074-1.2687988-0.4198608-1.7490234-0.9419556c-0.3509521-0.3816528-0.5733643-0.8308716-0.6968994-1.2996826   c-0.2810059-1.067749,0.0095215-2.2489014,0.8786621-3.0484009l1.6473389-1.5151367l0.8671875-0.7975464l0.1331787-0.1224976   l0.6054688-0.5568848l0.3378906-0.310791l0.4008789-0.3686523l11.545166-10.6184692   c2.7735596-2.5509644,6.055542-4.4859619,9.6303711-5.6777954s6.8569336-3.1268311,9.6304932-5.6777954l2.4564209-2.2592773   c2.2108154,1.1953735,10.697998,6.3885498,15.0581055,17.5640259l-2.9250488,2.6901855   c-0.5211182,0.4793091-0.8865967,1.0968628-1.0534668,1.7849731c-0.7420654,3.0584106-3.0053711,11.9859009-4.9157715,15.3292847   c0,0-4.0288086,7.4215698-4.7352295,14.0296631C99.9055176,70.769043,99.192627,71.4434204,98.3129883,71.4882812z    M80.8884277,78.8865967c0,4.2057495-0.8901367,8.3638306-2.6120605,12.2009888   c-1.7218018,3.8371582-2.6120605,7.9953003-2.6120605,12.2010498v1.8287354   c-0.6140137,0.3074341-3.5922852,1.6846924-8.3996582,2.2142944c-0.536377-1.8705444-2.2403564-3.2476807-4.2832031-3.2476807   c-2.0100098,0-3.6904297,1.3338623-4.2554932,3.1581421c-2.6993408-0.3353271-5.6680908-0.9868164-8.8670654-2.0848389v-3.4796753   c0-0.7893677-0.230957-1.5565796-0.6695557-2.2128906c-1.9511719-2.9192505-7.5761719-11.5252686-8.8794556-15.6213379   c0,0-1.1854248-3.5852051-2.8479614-7.1550903c2.1699219-0.8672485,3.4754639-1.8918457,3.8743896-3.0473022   c0.2429199-0.7034912,0.1722412-1.4398193-0.1990356-2.0732422c-0.9024658-1.5401611-1.7963867-2.8303223-2.6749268-3.8787231   c0.8014526,0.0744019,1.592041,0.3568726,2.274292,0.8855591c1.477417,1.1449585,3.1311646,2.7069702,4.3793945,4.6602783   c0.2061157,0.3224487,0.5234985,0.4673462,0.8370361,0.4673462c0.5073853,0,1.0047607-0.3791504,1.0047607-0.9984131V70.661438   v-1.0001831v-0.9995117v-7.1490479v-2.4977417v-8.5133057v-1.5749512v-1.3917847   c0-0.0268555,0.0072632-0.0516357,0.0078735-0.0783691c0.1447754,0.2805176,0.3134766,0.5490112,0.5319824,0.782959   c0.6553345,0.7016602,1.5817871,1.104126,2.5419922,1.104126h0.6081543c0.9703369,0,1.9035645-0.409668,2.5603027-1.1239624   c0.2991943-0.3255005,0.520752-0.7069092,0.6763916-1.112793c0.0178223,0.1417847,0.0430908,0.2814331,0.0430908,0.4280396   v6.9286499v2.4259644v8.5132446v1.3566284v0.0067749c0,0.5623169,0.4559326,1.0181885,1.0183105,1.0181885   c0.0438232,0,0.0811768-0.0195923,0.1236572-0.0249634c0.3760986-0.0477905,0.6887207-0.2860718,0.8210449-0.628479   c0.0441895-0.1143188,0.0737305-0.2364502,0.0734863-0.366394l-0.0119629-8.0195312l-0.0036621-2.4292603l-0.0126953-8.5283203   l-0.0036621-2.4683838l-0.0021973-1.4799194c-0.0004883-0.3400269,0.0637207-0.6619873,0.1552734-0.97229   c0.0976562,0.7056274,0.4107666,1.3737183,0.902832,1.9006348c0.5787354,0.6196899,1.3718262,0.987793,2.210083,1.0695801   c-0.369751,0.5498657-0.6226807,1.1540527-0.7543945,1.7838745c-0.1782227,0.8526001-0.133667,1.7398682,0.1312256,2.578064   c0.2167969,0.6860962,0.5690918,1.3392944,1.0874023,1.9029541c0.7108154,0.7727661,1.6434326,1.3012695,2.6555176,1.5228882   l-2.2030029,2.0262451c-0.90271,0.8302002-1.4127197,1.9171143-1.5675049,3.0466309   c-0.1298828,0.9484863,0.0072021,1.9181519,0.4160156,2.8070679c0.2155762,0.4689331,0.4836426,0.9203491,0.8513184,1.3202515   l0.0828857,0.0900879c0.1920166,0.2088013,0.4024658,0.3966675,0.6241455,0.5685425   c0.3511963,0.2723389,0.7385254,0.489563,1.1459961,0.6611938c0.3017578,0.1271973,0.6112061,0.2357178,0.9331055,0.3029785   c-0.5958252,0.8067627-0.9382324,1.7720947-0.9810791,2.7963867c-0.0037842,0.090332,0.0140381,0.1773071,0.0148926,0.2670288   c0.0129395,1.2563477,0.4642334,2.4504395,1.3210449,3.3820801l0.0992432,0.1080322   c0.9592285,1.0428467,2.3215332,1.640686,3.7382812,1.640686c0.9987793,0,1.9630127-0.2913208,2.7855225-0.8322144   c0.1269531,1.010498,0.5574951,1.9924316,1.2979736,2.7975464l0.0621338,0.0675049   c0.9589844,1.0427856,2.3218994,1.6414185,3.7384033,1.6414185c1.2736816,0,2.4919434-0.4753418,3.4302979-1.3384399   l2.7808838-2.5576782V78.8865967z M75.6643066,112.9730835c0,0.6920166-0.3498535,1.3434448-0.9436035,1.6988525   c-1.5484619,0.9268799-5.1271973,2.4919434-11.6384277,2.4919434c-3.7302246,0-8.4071045-0.6523438-12.1141357-2.5383301   c-0.6778564-0.3449097-1.109375-1.0368652-1.109375-1.7974243l0.0001221-5.5670166   c3.1362305,1.0307617,6.0559082,1.6675415,8.7180176,2.0004272c0.3388672,2.1357422,2.1733398,3.7730713,4.404541,3.7730713   c2.1938477,0,4.0109863-1.5809937,4.3935547-3.6641846c3.9970703-0.4262085,6.8393555-1.4240112,8.2893066-2.0467529V112.9730835z    M36.1470337,68.1046143c0.8894653,0.8980103,1.9862061,2.2924805,3.2647095,4.4743042   c0.5673218,0.9680786-2.7523193,2.2780151-2.7523193,2.2780151c-0.135437-0.1785889-0.2483521-0.3449707-0.3730469-0.5177612   c-0.6849976-0.9494629-1.2225952-1.8167725-1.625061-2.592041c-0.1270752-0.244812-0.2454834-0.4835815-0.348999-0.7111206   c-0.3460083-0.7605591-0.5620728-1.4191895-0.6980591-1.9874268c-0.0609131-0.2546387-0.1112061-0.4969482-0.1419678-0.7131348   c-0.1030273-0.7247925,0.4768677-1.2714844,1.1048584-1.2714844c0.2294312,0,0.4654541,0.0730591,0.6766968,0.2370605   c0.03302,0.0256348,0.0701904,0.0592041,0.104126,0.0864868C35.5991821,67.581604,35.8616333,67.8164673,36.1470337,68.1046143z    M16.260437,35.3775635l-3.2402344-2.9696655c1.2590332-2.7959595,5.7733154-11.2402344,16.2067871-16.5093994l3.7196045,3.4090576   c0.5219116,0.4783936,1.168396,0.789917,1.8681641,0.897583c3.1105957,0.4786987,12.1984253,1.9729004,15.6924438,3.5914917   c0,0,7.737915,3.3817139,14.3822021,3.5223389c0.8806152,0.0186157,1.6134033,0.6715088,1.7330322,1.5441895   c0.2687988,1.9606323-1.0465088,3.7866211-2.9935303,4.1409912c-1.6225586,0.2952881-3.6558838,0.5595093-5.7374268,0.5595093   c-1.1328125,0-2.2797852-0.0782471-3.3828125-0.2722778c-0.0593262-0.010437-0.1171875-0.0153809-0.1733398-0.0153809   c-0.7879639-0.000061-1.2321777,0.9794312-0.6085205,1.5510254c0.8242188,0.7553711,1.7641602,1.6168213,2.7692871,2.5379639   c-0.081543,0.2575684-0.144043,0.5233765-0.163208,0.8033447l-0.0838623,1.2246094   c-0.2561035,0.1804199-0.5042725,0.3748779-0.7302246,0.6011353c-0.9089355,0.9102783-1.4554443,2.0858154-1.5673828,3.3516846   c-0.0083008-0.006897-0.0183105-0.0117798-0.0267334-0.0186157l-0.1463623-1.7409058   c-0.1503906-1.7870483-1.6727295-3.1867065-3.4658203-3.1867065c-1.8214722,0-3.3456421,1.4234619-3.4699707,3.2406616   l-0.1304932,1.9077148c-1.0755615,0.9935913-1.7542114,2.4107666-1.7542114,3.9869995v9.6470947l-3.0425415-2.7885132   c-0.1766968-0.1619263-0.3995972-0.2418823-0.6217651-0.2419434c-0.2491455,0-0.4974365,0.1005249-0.6790161,0.298645   c-0.3435059,0.3748779-0.3181763,0.9572144,0.0567017,1.3007812l4.2866211,3.9287109v8.319397   c-0.0592041-0.0467529-0.1231079-0.0839844-0.1796265-0.1357422L29.2160645,53.600647   c-2.7780151-2.5460815-4.9856567-5.6513062-6.4777832-9.1115112v-0.000061   C21.2460938,41.0288696,19.0384521,37.923584,16.260437,35.3775635z M61.3442383,39.0953979l0.0617676,0.7357178   l0.0617676,0.7342529l0.0393066,0.4684448l0.0841064,1.0009155l0.0197754,0.2349243   c0.0725098,0.8621216-0.607666,1.6019287-1.4727783,1.6019287h-0.6081543c-0.8560791,0-1.5330811-0.7249146-1.4746094-1.5789795   l0.1140137-1.6671753l0.072998-1.0650635l0.038208-0.5597534l0.0340576-0.4984741l0.0135498-0.1974487   c0.012085-0.1773682,0.0626221-0.3421021,0.1312256-0.4962158c0.1408691-0.3168945,0.3909912-0.5635986,0.699707-0.7156982   c0.1971436-0.097168,0.4099121-0.1652832,0.6436768-0.1652832c0.7683105,0,1.4084473,0.588623,1.4729004,1.354248   l0.036499,0.4332886L61.3442383,39.0953979z M52.1206055,45.7417603c0.0725098,0.8621216-0.607666,1.6018677-1.4727783,1.6018677   h-0.6081543c-0.8560791,0-1.5330811-0.7249146-1.4746094-1.5789185l0.0801392-1.1717529l0.0794678-1.1609497l0.074707-1.0923462   l0.0385132-0.5629272c0.0530396-0.7753906,0.6973877-1.3771973,1.4746094-1.3771973   c0.7683105,0,1.4084473,0.588623,1.4729004,1.354248l0.0449219,0.5335083l0.0898438,1.0697632l0.0935059,1.112915   L52.1206055,45.7417603z M57.642334,35.7026367l-0.1551514-0.1421509c0.1109619,0.00177,0.2227783,0.0023804,0.3348389,0.0026245   C57.7597656,35.6066895,57.7015381,35.6552124,57.642334,35.7026367z M105.5927734,12.7682495   c0.2075195,0,0.416748,0.0319214,0.6208496,0.0975342c1.1538086,0.3709717,3.0643311,1.2307739,5.4372559,3.1838379   l-5.7368164,5.2763062c-2.3625488-2.1502075-4.4970703-3.5263672-5.7867432-4.2626953l4.0782471-3.7508545   C104.5905762,12.958252,105.0864258,12.7683105,105.5927734,12.7682495z M114.7113037,18.9663086   c0.8300781,0.9025269,1.6790771,1.9430542,2.4715576,3.0751343l-5.8864746,5.4140625   c-1.2791748-1.8309937-2.6230469-3.4053955-3.9381104-4.741272l5.7960205-5.3308716   C113.6588135,17.8632812,114.1772461,18.3857422,114.7113037,18.9663086z"></path><path d="M74.8623047,68.75c-0.5351562-0.1274414-1.0595703,0.1987305-1.1933594,0.7280273   c-0.1347656,0.5292969,0.1875,1.0712891,0.7148438,1.2138672c0.0810547,0.0219727,0.7880859,0.2333984,0.8994141,0.9663086   c0.0751953,0.4951172,0.5009766,0.8496094,0.9873047,0.8496094c0.0498047,0,0.1005859-0.003418,0.1513672-0.0112305   c0.5458984-0.0830078,0.9208984-0.5927734,0.8378906-1.1391602C77.0068359,69.6904297,75.6337891,68.934082,74.8623047,68.75z"></path><path d="M66.6357422,65.5864868c-0.1254883-0.0484619-0.2456055-0.0878296-0.3525391-0.1133423   c-0.3669434-0.0860596-0.7276611,0.0522461-0.965332,0.314209c-0.1088867,0.1200562-0.1994629,0.2576904-0.2397461,0.4265137   c-0.1279297,0.5371094,0.203125,1.0766602,0.7402344,1.2045898c0.0078125,0.0019531,0.7714844,0.2041016,0.8867188,0.9628906   c0.0751953,0.4951172,0.5009766,0.8496094,0.9873047,0.8496094c0.0498047,0,0.1005859-0.003418,0.1513672-0.0112305   c0.5458984-0.0830078,0.9208984-0.5927734,0.8378906-1.1391602C68.4638672,66.6447754,67.4156494,65.8873291,66.6357422,65.5864868   z"></path><path d="M63.0654297,57.4208984c-0.0344238-0.0081787-0.067627,0.0009766-0.1019287-0.003479   c-0.4984131-0.0645752-0.9825439,0.241272-1.1031494,0.7442017c-0.1279297,0.5371094,0.203125,1.0766602,0.7402344,1.2045898   c0.0036621,0.0009155,0.1728516,0.0487061,0.362915,0.1728516c0.2174072,0.1420288,0.4622803,0.3851318,0.5238037,0.7900391   c0.0751953,0.4951172,0.5009766,0.8496094,0.9873047,0.8496094c0.0498047,0,0.1005859-0.003418,0.1513672-0.0112305   c0.1220703-0.0185547,0.2318115-0.0649414,0.3336182-0.1218262c0.3533936-0.1975098,0.5687256-0.5931396,0.5042725-1.017334   c-0.0773926-0.5098877-0.2664795-0.925293-0.5042725-1.2744751C64.4199219,57.9614868,63.6009521,57.548645,63.0654297,57.4208984z   "></path><path d="M64.0218506,46.7503662c-0.0194092-0.0117188-0.0386963-0.0229492-0.0579834-0.0341187   c-0.2982178-0.171936-0.5900879-0.2890625-0.8251953-0.3451538c-0.059082-0.013855-0.1164551-0.0025635-0.1751709-0.0056152   c-0.4714355-0.0245972-0.9152832,0.2678833-1.0299072,0.7463379c-0.1279297,0.5371094,0.203125,1.0766602,0.7402344,1.2045898   c0.0031738,0.0007935,0.1318359,0.0374756,0.2896729,0.1276855c0.2318115,0.1325073,0.5284424,0.3838501,0.5970459,0.8352051   c0.0751953,0.4951172,0.5009766,0.8496094,0.9873047,0.8496094c0.0498047,0,0.1005859-0.003418,0.1513672-0.0112305   c0.0952148-0.0144653,0.177002-0.0567017,0.260376-0.0950928c0.394165-0.1817017,0.6461182-0.5930786,0.5775146-1.0440674   c-0.0852051-0.5618896-0.3034668-1.0123901-0.5775146-1.3803101   C64.6845703,47.2288208,64.3537598,46.9504395,64.0218506,46.7503662z"></path></g></svg>